<?xml version="1.0" encoding="UTF-8" standalone="no"?>
<!-- Created with Inkscape (http://www.inkscape.org/) -->

<svg
   version="1.1"
   id="svg3644"
   width="1279"
   height="404"
   viewBox="0 0 1279 404"
   sodipodi:docname="B473LayoutMasterEDITED.svg"
   inkscape:version="1.1.2 (0a00cf5339, 2022-02-04)"
   xmlns:inkscape="http://www.inkscape.org/namespaces/inkscape"
   xmlns:sodipodi="http://sodipodi.sourceforge.net/DTD/sodipodi-0.dtd"
   xmlns="http://www.w3.org/2000/svg"
   xmlns:svg="http://www.w3.org/2000/svg">
  <defs
     id="defs3648" />
  <sodipodi:namedview
     id="namedview3646"
     pagecolor="#ffffff"
     bordercolor="#666666"
     borderopacity="1.0"
     inkscape:pageshadow="2"
     inkscape:pageopacity="0.0"
     inkscape:pagecheckerboard="0"
     showgrid="true"
     inkscape:zoom="0.98901497"
     inkscape:cx="620.81972"
     inkscape:cy="219.41023"
     inkscape:window-width="1920"
     inkscape:window-height="1008"
     inkscape:window-x="1920"
     inkscape:window-y="0"
     inkscape:window-maximized="1"
     inkscape:current-layer="g3650"
     showguides="true">
    <inkscape:grid
       type="xygrid"
       id="grid3251" />
  </sodipodi:namedview>
  <g
     inkscape:groupmode="layer"
     inkscape:label="Image"
     id="g3650"
     style="display:inline">
    <path
       style="fill:#000000"
       d="M 380,394.27405 C 285.34131,390.74708 189.96637,385.20144 97,366.51504 48.144553,359.58518 4.2259941,322.6892 11.01925,269.57273 11.388483,208.05353 3.8536808,144.76412 18.835865,84.539619 41.584809,40.18337 99.402013,34.698914 143.38655,26.812606 448.36592,-13.965206 764.94024,4.8585294 1055.8843,109.5582 c 72.5547,25.81414 144.6818,53.52602 214.7684,85.33806 -7.6987,34.3931 -73.8354,34.90567 -103.7527,55.61566 C 971.57761,331.60549 763.14384,381.8317 551.64116,392.02765 494.48439,395.04534 437.21579,395.30934 380,394.27405 Z M 454.77159,373.25 C 462.10283,350.76624 444.63615,352.733 427.87916,354 406.85489,348.35026 402.66245,359.53234 406,378.24442 c -5.9231,26.55823 32.0202,10.18252 48.35457,14.25558 0.40748,-6.13369 0.24343,-12.87631 0.41702,-19.25 z M 497.75,391.4022 c 20.78734,4.01955 7.52952,-24.24015 11.25,-36.4022 -30.74839,-2.77705 -64.69404,-4.73541 -50.54237,36.93145 13.0571,0.91992 26.22709,-0.0701 39.29237,-0.52925 z M 404,361.5 c 0.002,-16.33448 5.46543,-38.13009 -18.497,-30.5 -13.72801,4.28603 -45.89099,-10.83119 -42.32038,11.91719 6.11161,13.7243 -11.86479,51.09244 11.81738,48.13334 17.42983,-4.213 58.55279,14.5392 49,-17.54753 0,-4.001 0,-8.002 0,-12.003 z m -38.79876,0.25 c -6.29144,-22.54371 -0.38878,20.74215 -10.76515,-7.75 -6.71374,16.98978 -3.57478,8.20193 -7.22815,-0.85017 9.48298,-26.82919 -4.22278,-1.7014 9.58644,-1.0113 -10.03172,-22.95668 13.6359,17.92443 8.78508,-15.30921 -2.0026,22.21381 7.64821,12.90154 5.46733,6.2265 5.33183,28.98553 23.15474,-9.2186 17.44161,2.89684 11.45167,14.19043 4.68931,1.30059 4.56679,20.94347 3.95209,-19.26137 -29.14412,-17.38187 -16.1073,1.45176 -5.47232,-34.98691 -14.93471,4.8556 -11.68259,-4.13097 z m 17.13497,0.25 c 0.69609,-13.34553 0.69609,13.34553 0,0 z m 0,-17 c 0.69609,-13.34553 0.69609,13.34553 0,0 z M 552.5,389.40552 c 3.27874,-5.34856 9.04948,-37.69218 -5.23253,-34.65845 -24.23567,-3.55649 -44.34734,-2.37968 -36.26747,26.33192 -5.39584,21.21198 31.30541,3.54184 41.5,8.32653 z M 340.56575,376.57164 c 6.88258,-25.38851 -41.24654,-3.3008 -5.13239,-13.28355 -24.50004,-10.75997 -31.1013,15.52545 -18.3817,21.19551 -43.38818,-3.11484 -31.1262,-0.23266 -9.17047,-10.92285 -6.2848,-25.24646 -58.49744,-8.88635 -80.85421,-21.33678 -22.11004,6.25414 -79.16522,-37.48326 -71.02698,2.22692 -9.88591,36.22613 41.83459,18.69758 62.50492,26.93263 40.5878,3.75832 81.23391,7.49072 121.99508,8.61506 0.0219,-4.47563 0.0437,-8.95139 0.0657,-13.42694 z M 589.5,386.98235 c 43.10028,-7.76661 105.96151,-0.19367 136.5,-22.51679 -21.64632,-17.05714 -81.2197,8.5105 -115.81226,5.90918 -20.01196,3.28152 -71.82321,5.55039 -22.64819,1.16233 45.35805,-6.64196 96.91341,-6.77759 138.46728,-18.78707 12.67294,-18.50245 70.54528,-34.8163 50.86431,-51.87911 -36.07935,46.09607 -99.26221,37.38692 -150.83931,35.40372 -27.05876,0.38004 -55.27016,-26.50155 -68.78183,-38.67864 14.95827,29.38064 -26.89056,110.13779 32.25,89.38638 z m 11.90624,-7.13405 c 15.39378,-13.12954 60.15621,-0.0538 13.94292,0.70159 l -7.24253,0.35438 z M 650.75,377.34086 c 6.65878,-14.69014 61.21757,-1.77597 10.39375,-0.51444 L 655.5,377.43706 Z M 153,201 C 152.89277,143.33383 153.13986,85.661739 152.44183,28 107.78163,34.158034 55.450503,41.294005 25.219234,78.076769 4.7738712,127.85302 15.099245,183.67056 12.659463,236.18733 10.727542,281.7013 14.534943,342.36917 69.051472,354.45294 106.56066,367.62371 172.09634,394.2512 152.81317,328.57262 153.00853,286.04875 152.98905,243.52422 153,201 Z m 595.71731,167.48154 c 33.27945,10.71135 39.93467,-34.18407 27.35661,-45.11343 -17.18715,7.17708 -74.10287,37.0941 -34.77192,46.32335 z M 310.24925,361.75 c 29.60218,4.79112 32.57621,-8.31656 34.06992,-33.1378 15.65977,-8.19282 57.55047,11.31248 59.68083,-9.57702 -4.03707,-27.45544 -73.38243,8.58032 -59,-36.33772 -1.74598,-14.70065 3.52283,-36.41609 -2.64243,-46.69746 -16.62356,-9.99107 48.80294,11.9602 36.64243,-15.21214 0,-17.59595 0,-35.19191 0,-52.78786 -21.98331,3.05804 -53.40901,-7.41202 -68.7177,6.63123 -4.98566,19.88891 4.35371,64.557 7.28913,61.36877 -14.52747,-2.69992 -13.97118,-61.57425 -13.06276,-16.41306 14.12533,46.64304 4.44908,96.81823 3.81416,143.41306 z m -5.25734,-2.7782 c -18.71597,-21.81513 -30.1428,-34.27922 -10.93583,-63.4718 6.73842,-30.63126 3.90898,-62.341 5.25463,-93.5 -47.77024,0 -95.54047,0 -143.31071,0 0.92647,44.2949 -2.21798,89.2505 2.03993,133.03993 47.21593,15.34427 98.28839,21.2887 147.82046,26.96007 l -0.72847,-2.54003 z m 27.79161,2.29453 c -22.37864,-1.35423 -4.2629,1.34465 0,0 z M 797,360.05454 c 43.94476,13.7834 38.74813,-57.44907 28.3812,-63.63998 -16.56767,8.25212 -66.9683,16.4282 -20.41915,12.47136 26.45183,-12.79395 31.31854,49.0329 6.15459,36.11437 -9.96933,-4.48114 -41.47916,1.57703 -21.89948,16.41166 l 7.78281,-1.35712 z M 557.68933,355.25 c -1.6085,1.48708 1.55624,7.74545 0,0 z m -249.85566,-12.5 c 3.33556,-43.52594 7.3411,-88.58697 -6.87136,-130.68431 7.13639,41.08413 -17.46757,93.391 -9.75663,124.5015 9.50733,5.1282 18.30518,32.70967 16.62799,6.18281 z m 128.95552,9.51218 c -15.04045,-0.851 -16.79215,1.02328 0,0 z m 436.78279,-8.64676 c 42.18941,5.02515 21.09719,-53.89611 -8.92642,-33.17082 6.94966,13.84845 -37.85824,-8.77962 -18.52747,24.70222 18.62523,6.18285 47.14568,-10.52281 37.41599,-23.0442 10.79625,31.56603 -50.13167,33.68951 -46.90533,4.46137 -11.63714,19.68532 -6.78791,48.3907 22.38784,30.3362 l 7.65271,-1.71615 z m -9.00055,-18.18685 c -1.5065,-10.63565 3.65257,8.22628 0,0 z m -411.57196,20.9881 c -6.84797,-9.57427 -73.50519,-0.95953 -33.78738,4.08333 9.48555,-2.48838 31.37873,5.15196 33.78738,-4.08333 z m 5.18961,-1.16667 c -7.14647,2.87472 34.17666,8.40594 52.33658,4.67857 41.32923,6.07669 52.74242,2.08163 44.53802,-43.40631 -4.23786,-33.81757 12.53848,-84.22641 -9.82377,-106.39809 -38.21122,-15.83509 -47.63262,22.1301 -39.40417,40.11157 23.66398,-1.12275 1.17216,44.58265 12.30482,55.79527 17.95591,3.91157 -52.0763,-4.67225 -33.03434,0.71264 -24.45438,-6.25994 -29.87456,6.07944 -26.64326,27.71542 1.73547,-9.71286 -4.17936,-43.94879 -3.29631,-13.06208 -0.44696,10.65141 -0.75442,20.4199 0.47528,35.5093 -1.91265,7.11477 4.92746,2.84495 2.54715,-1.65629 z M 549,342.55902 c 1.89758,-5.03541 3.10612,3.62658 0,0 z m -45.25,-4.63912 c -23.7489,-42.44075 32.45945,-45.15815 46.74094,-37.88051 7.66089,42.18004 -9.87149,42.5142 -46.74094,37.88051 z M 546.8,336.8 C 564.60479,302.02181 524.62245,286.20179 503.29457,305.15308 492.94704,344.86335 517.30732,339.38023 546.8,336.8 Z m -24.43299,-32.17057 c 1.18174,-9.8585 10.92191,5.27722 0,0 z M 527,303.41667 c -3.49385,-4.45066 -3.5458,5.33902 0,0 z M 458.19495,332.5 c 1.08993,-4.7491 0.58643,6.02347 0,0 z M 539.25,296.31067 c 7.74545,-1.55624 1.48708,1.6085 0,0 z m -17.8503,-10.07598 c -16.71771,-24.77727 6.36122,-77.56757 26.42923,-43.50189 -2.45458,21.22389 11.41658,55.85869 -26.42923,43.50189 z m 12.8503,-0.94042 c -9.97647,-1.50397 -1.95145,1.53162 0,0 z m 11.5,-2.04261 c 0.30321,-20.22506 5.86762,-65.45156 -4.48291,-27.49996 -33.12345,-4.2834 -12.96594,3.05542 3.42606,-5.14734 3.88815,-44.06841 -51.61541,14.08047 -10.36588,6.39564 23.73223,-6.51664 5.50979,49.13867 10.5649,6.79444 -27.18523,-29.1691 -37.94473,36.12724 0.85783,19.45722 z M 519.70573,263.75 c -1.53162,1.95145 1.50397,9.97647 0,0 z m 0.002,-19.98834 c -1.54335,1.81376 1.45256,8.76872 0,0 z M 512,226.83333 c 0.66582,-12.93625 2.53294,14.44717 0,0 z m 14.76791,3.44194 c 13.18493,-1.38785 2.7668,1.42819 0,0 z m 18.92334,0.0267 c 6.45467,-12.92566 3.76499,1.45649 0,0 z M 548.32007,209 c 0.71521,-11.57046 0.71521,11.57046 0,0 z m -36.24978,-1.69098 c 2.55842,-15.89176 1.05011,11.56773 0,0 z M 785.84337,336.5 c -2.3818,-26.46843 -1.70916,26.46182 0,0 z m 6.97618,5.27503 c 1.19671,-18.83388 -11.5579,5.25671 0,0 z M 802,339 c -9.05679,-19.745 -6.7389,17.35421 0,0 z m 13,3.36024 c -7.74048,-14.08553 -10.72695,8.64039 0,0 z M 822,341.5 c 8.19806,-3.23374 -1.56619,-14.1889 -3,2.5 l 2.45,-0.45833 z m -382.19681,0.75514 c -25.58967,-0.77273 -27.41945,0.93491 0,0 z M 450.36163,339.5 c -7.84317,-5.20867 -0.36078,4.89609 0,0 z m 353.34563,-3.73834 c -1.54335,1.81376 1.45256,8.76872 0,0 z M 807,337.5 c -2.29951,-12.15766 -2.29951,12.15766 0,0 z M 412,339 c -3.90318,-3.65313 -3.90318,3.65313 0,0 z m 12,0 c -13.22095,-3.72598 -13.22095,3.72598 0,0 z m 9,0 c -9.23827,-3.71713 -9.23827,3.71713 0,0 z m 12,0 c -14.54739,-3.72749 -14.54739,3.72749 0,0 z m 368.41821,-2.60699 c 4.3254,-7.86126 -13.44953,3.2594 0,0 z M 822.5,335.5 c -13.42363,-7.14918 -2.85755,5.13859 0,0 z M 412,335 c -3.90318,-3.65313 -3.90318,3.65313 0,0 z m 12,0 c -13.22095,-3.72598 -13.22095,3.72598 0,0 z m 9,0 c -9.23827,-3.71713 -9.23827,3.71713 0,0 z m 12,0 c -14.54739,-3.72749 -14.54739,3.72749 0,0 z m 5,0 c -5.24284,-3.68475 -5.24284,3.68475 0,0 z m 467,-2.37933 c 61.40844,-17.87039 123.2323,-35.70883 182.5704,-59.40226 -21.9233,-11.14301 -75.2914,22.52339 -108.90913,27.33163 -14.49162,5.25142 -61.12656,18.4096 -20.86433,5.37397 43.45546,-13.50854 86.75056,-27.53457 130.20306,-41.04504 -17.4784,-19.16269 -75.6188,18.62739 -107.05207,19.38192 -25.431,5.74927 -58.20002,9.21618 -45.6009,36.36207 -6.50871,0.73141 -69.84642,22.45158 -30.34703,11.99771 z m 53.25,-19.28295 c 2.41855,-16.74471 61.9696,-14.27748 19.23289,-3.8453 -6.26215,0.66962 -12.90017,5.56458 -19.23289,3.8453 z m -258.57236,19.62795 c 37.92984,-5.89041 80.1004,-34.99357 68.27057,-78.96571 9.25843,-29.8941 -13.02615,-49.1627 -9.94821,-12.52116 2.24024,24.15317 0.72325,60.51843 -21.95218,67.80818 -40.83957,23.22989 -92.41686,17.51941 -136.92425,10.02452 -40.42257,-7.52773 -45.86885,-45.04759 -42.38352,-78.94229 -3.03461,-28.8246 -15.0805,-1.55806 -9.74005,14.6975 1.55055,16.90881 -6.00422,37.30458 11.17672,48.53552 36.49385,40.6489 93.2108,29.14284 141.50092,29.36344 z M 804,329.56788 c -2.22612,-23.70429 -34.38495,1.16352 -8.58907,3.28265 2.84514,-1.17533 11.019,3.07599 8.58907,-3.28265 z m 18.1846,0.68212 c 8.45982,-19.35263 -29.44841,-5.31207 2.8154,-13.3359 -10.04906,-25.42825 -32.15301,24.79465 -8.85757,16.0859 2.07586,-0.84128 7.81695,2.1801 6.04217,-2.75 z M 914,329.4437 c 20.11998,-2.7071 50.50403,-20.83796 12.14954,-8.56407 C 913.71005,320.40008 887.42739,337.33943 914,329.4437 Z M 412,330.5 c -3.83242,-5.38118 -3.83242,5.38118 0,0 z m 12,0.0674 c -6.24874,-5.99066 -18.48285,5.05157 0,0 z m 9,-0.0674 c -7.68874,-6.39004 -10.10365,6.12351 0,0 z m 6,0 c -6.52576,-5.49927 -6.52576,5.49927 0,0 z m 6,0 c -6.52576,-5.49927 -6.52576,5.49927 0,0 z m 5,0 c -5.18233,-5.45469 -5.18233,5.45469 0,0 z M 786,326 c -2.41393,-6.95128 -2.41393,6.95128 0,0 z m -374.21906,-2 c -3.22468,-10.41428 -3.43954,10.40732 0,0 z m 7.30239,1.64116 c 4.46609,-7.90126 -11.97493,4.7835 0,0 z M 424,326 c -2.55494,-3.58745 -2.55494,3.58745 0,0 z m 9,0 c 0.31071,-10.84124 -16.60445,1.31311 0,0 z m 8.14268,-0.3477 c 14.16706,-7.81125 -20.35406,2.62245 0,0 z M 450,324 c -4.08319,-10.514 -3.79541,10.78452 0,0 z m 485.5,-7.25528 C 961.2067,304.11824 925.72025,271.302 906.37451,295.239 865.84685,313.70057 912.10142,338.49541 935.5,316.74472 Z M 804,324 c -2.46629,-3.56228 -1.20936,3.65615 0,0 z m 2.73027,-0.93072 c -2.73713,-5.29591 -1.3927,6.40361 0,0 z m -383.1261,-1.79845 c -4.88899,-0.0236 2.72503,5.17529 0,0 z m 289.96217,0.67461 C 770.66032,317.28012 771.6938,260.69453 772.07037,217 c -30.2274,-4.57562 -53.57504,3.61022 -43.3899,41.19458 -16.46927,37.13656 -87.96528,27.08653 -118.76739,10.22568 5.23651,-30.79397 -8.77301,-55.45682 -41.78552,-40.76934 8.39331,23.81271 -9.58029,57.54374 15.4884,74.06647 35.31334,31.90089 86.84402,19.09713 129.95038,20.22805 z M 418.92971,319.25 c 14.26834,-5.09424 -13.28243,-2.51932 0,0 z M 438.25,319.07651 c 11.81716,-0.52129 -2.65497,-7.88109 -2.5,0.41152 z M 412,317 c -3.756,-7.06637 -3.756,7.06637 0,0 z m 21,0 c -8.25689,-8.72394 -9.84686,8.38774 0,0 z m 16.72505,0 c -6.78932,-7.78533 -2.98975,8.12944 0,0 z M 799.75,317.60795 c -9.30654,-11.667 25.77832,4.54003 -0.84226,-7.26419 -21.88697,-1.73226 -16.65923,16.81886 0.84226,7.26419 z M 412,312.5 c -3.83242,-5.38118 -3.83242,5.38118 0,0 z m 12,0 c -10.01661,-6.5382 -15.57548,6.09282 0,0 z m 9,0 c -7.68874,-6.39004 -10.10365,6.12351 0,0 z m 12,0.0254 c -14.09586,-7.31392 -13.9558,6.84045 0,0 z m 5,-0.0254 c -5.18233,-5.45469 -5.18233,5.45469 0,0 z m 395.72224,-0.99088 c 36.23561,-10.92474 -8.80188,-8.71612 -4.79399,-23.9443 -11.81211,-0.27221 8.73754,-12.17109 32.82163,-16.89086 -3.75191,-22.10536 -25.43469,9.23846 -28.59395,-3.42467 -27.80871,-6.32554 -37.40699,55.51856 -59.70574,14.36544 -16.83357,28.8229 24.3004,30.6371 44.98443,9.88331 16.48645,-14.13232 -14.5107,32.30598 15.28762,20.01108 z M 412,309 c -3.90318,-3.65313 -3.90318,3.65313 0,0 z m 12,0 c -13.22095,-3.72598 -13.22095,3.72598 0,0 z m 9,0 c -9.23827,-3.71713 -9.23827,3.71713 0,0 z m 12,0 c -14.54739,-3.72749 -14.54739,3.72749 0,0 z m 5,0 c -5.24284,-3.68475 -5.24284,3.68475 0,0 z m -28.46646,-2.09298 c 23.9522,-3.52883 9.18216,-0.37528 27.96646,-0.90334 11.68271,-5.74946 -19.69162,-8.51282 -37.99699,-7.04233 -10.173,-0.621 1.24043,4.36151 0.0299,8.37424 z m -7.88467,-1.66614 c 24.63969,-3.48882 17.78305,2.65593 0,0 z M 404,295.625 c 9.52176,-29.19485 -56.3565,-26.57121 -34.76578,-57.35235 20.04334,0.63352 48.56771,-2.12317 11.75406,-2.25607 -16.62186,1.17117 -43.21876,-7.56983 -34.98828,18.48042 1.43813,15.96942 -2.89366,34.79463 2.10103,49.00375 13.26771,3.68371 60.96569,13.29716 55.89897,-7.87575 z m 473,9.26248 c 37.98555,-7.3624 -30.85939,-47.25967 -4.83854,-21.65243 21.15159,16.12139 -29.87527,15.45207 -3.18538,23.32784 z m -437.25,-7.63369 c -35.08692,-0.52154 -24.23849,0.95371 0,0 z M 856.13957,297 c -6.47394,-14.89093 17.64298,6.00791 6.18368,-7.58133 20.8928,-3.86677 -9.27594,-16.39658 -18.0733,-1.26865 -5.47662,10.73018 4.73828,10.23793 11.88962,8.84998 z M 892,297 c -2.56315,-3.70389 -3.84426,3.58521 0,0 z m 5.67963,-2.29065 c -4.98571,-2.25359 -7.02442,5.15414 0,0 z m -443.2385,-0.24115 c 15.03044,-10.3934 58.93542,12.11513 57.96427,-12.0376 8.68528,-32.09901 -25.14879,-55.20702 -6.16646,-84.82839 28.90511,-5.42917 56.94451,-1.48311 56.64771,26.52702 40.76898,11.27781 56.09166,-13.63321 95.8988,-12.03446 59.94618,-8.9955 -66.61993,18.62661 -47.5879,-27.09477 4.21854,-42.299 76.18133,-19.09946 106.54279,-19.01089 15.83147,24.35217 -2.58755,57.45352 -33.74034,43.89727 40.32285,16.44432 52.02684,-53.1465 16.37926,-44.65019 -32.46749,-0.59442 -108.93553,-11.75413 -82.81416,41.41442 35.40137,6.78115 76.29403,-3.48372 107.85155,15.59017 0.89958,2.58716 34.24035,-14.52128 54.1506,-7.47469 -7.62137,-32.7993 26.72263,-108.77153 -33.03834,-92.76468 -34.32601,-1.35703 -68.68342,-1.21644 -103.02891,-1.44278 42.5833,-1.15079 85.19059,-0.72446 127.75,0.85502 3.76246,-23.135752 -77.65816,0.086 -59.11401,-8.96804 22.44218,-3.73711 78.28734,9.28553 51.39258,-30.498166 C 732.98498,74.26537 700.81939,78.029905 669.5,76.39484 c 32.76249,1.679728 67.93133,-5.962449 98.46223,7.037323 1.02416,13.102496 6.15355,60.875947 12.0155,20.662717 C 791.17119,68.38972 760.37212,62.288763 730.02589,66.74694 684.98854,68.910372 638.43364,61.105705 594.5,72.689649 c -4.1096,20.211263 6.00978,76.305501 8.59633,24.67442 C 594.78777,65.010912 673.36115,79.511762 658.57925,76.507841 634.36246,68.721316 580.11262,90.42901 614,111.97652 c 40.14134,0.40409 0.11129,-2.91891 -9.8,3.73688 -6.44344,14.31875 60.62873,1.05863 26.10296,6.06139 -33.13203,0.42973 -69.82362,6.37551 -100.29146,-3.74702 -11.1476,4.47463 -39.2604,-2.71342 -56.56651,0.76527 -6.94249,45.90372 -53.34793,43.86848 -45.16305,-0.12559 -5.27823,26.12217 4.1581,43.53222 12.33437,56.40831 6.726,29.50581 10.30769,75.69997 -31.8198,60.67756 -3.1336,14.64401 -5.48531,46.72397 0.12552,60.24304 15.14703,-0.50495 30.57637,1.22352 45.5191,-1.52816 z m 302.37502,-87.08 c -15.37805,-28.2802 46.5513,-3.08898 9.75322,0.0517 z m 14.54428,-2.02412 c 19.14442,-23.18641 -40.94255,3.28665 0,0 z M 653.5,112.29691 c 37.01186,-4.59962 -12.98408,2.80226 0,0 z m 21.25,-0.0508 c 16.24593,-3.52334 53.40996,-0.4901 14.04171,0.21059 -4.66177,-0.33482 -9.39425,0.472 -14.04171,-0.21059 z m -32.9375,-1.92921 c 4.3834,-1.43244 0.43359,1.92488 0,0 z M 948.5,295 c 0.43201,-3.44194 -10.69935,3.72518 0,0 z m -448.23097,-0.65594 c -6.6643,-1.82411 -1.20257,1.81729 0,0 z m 319.47975,-9.30923 c 11.70288,-35.18653 -43.34047,25.26403 -9.45422,-11.03686 -15.80944,11.91616 -31.78364,0.64484 -15.33573,11.88983 -17.46378,0.10545 15.46005,17.56655 24.78995,-0.85297 z M 877,294 c -2.55494,-3.58745 -2.55494,3.58745 0,0 z m 32,-6.97747 c 40.50234,6.94304 31.53362,-58.96816 2.20509,-22.03101 -28.52145,5.57915 -41.27601,41.80633 -2.20509,22.03101 z m 50.53371,2.9152 c 46.73369,-13.16506 94.33579,-24.11352 140.42629,-39.06237 -13.1377,-7.98136 -40.5839,12.29253 -60.3559,14.11268 -32.7014,-0.14803 -65.40273,-0.29605 -98.1041,-0.44408 35.8961,-1.50512 72.5838,1.51935 107.9896,-2.79144 16.6701,-5.81911 33.3403,-11.63821 50.0104,-17.45731 0.1735,-28.93948 0.3471,-57.87897 0.5207,-86.81845 -28.5262,-8.54299 -55.9328,-23.87781 -86.5874,-19.50824 -24.68469,3.90528 -59.44158,-10.20843 -76.07681,8.744 -42.35159,41.37435 1.18782,92.93045 0.44985,133.42859 -26.09913,-5.15373 13.88964,19.87371 21.72737,9.79662 z m 1.94479,1.46562 c 9.70925,-4.01942 -24.96728,6.65457 0,0 z M 515,289.55902 c -1.77691,-6.78707 -3.09158,5.40584 0,0 z M 970.5,289 c 2.73431,-4.11142 -10.19494,4.41264 0,0 z m 8,-2 c 0.43201,-3.44194 -10.69935,3.72518 0,0 z m 11,-3.13466 c -6.69733,-1.62078 -9.83033,4.87555 0,0 z M 515,282.44098 c -3.06815,-3.54506 -0.58932,4.92806 0,0 z m 486.9642,-1.99701 c 11.1177,-5.6873 -22.83787,7.5308 0,0 z m -348.20254,-1.13105 c -8.96109,-1.6727 -1.61654,1.65996 0,0 z m 21.52993,-0.0522 c -16.35553,-0.8378 -18.12328,1.01012 0,0 z m 13.47007,0.0522 c -8.96109,-1.6727 -1.61654,1.65996 0,0 z m -45,-1 c -8.96109,-1.6727 -1.61654,1.65996 0,0 z m 55,0 c -8.96109,-1.6727 -1.61654,1.65996 0,0 z m 313.58214,-0.39139 c 13.3809,-5.11503 -17.98624,4.19561 0,0 z m -378.07477,-0.57747 c -6.6643,-1.82411 -1.20257,1.81729 0,0 z M 655,246.22342 c 1.38213,-20.29957 3.96988,-42.93812 -25.1575,-29.09841 -19.6033,-3.39939 -22.90853,26.90791 -14.55567,6.10082 -12.24185,36.78322 -2.74508,63.48771 38.60306,54.72982 2.52689,-8.0255 0.4123,-21.78398 1.11011,-31.73223 z M 681,246 c -1.9293,-13.78484 8.01511,-39.44339 -15.14243,-32 -18.88325,-3.16911 -6.28187,25.14642 -9.85757,37.28486 -2.23005,17.94419 -1.89096,33.31924 20.42728,26.71514 9.8995,0.64819 2.04539,-24.70364 4.57272,-32 z m 22.77327,30.92512 c 39.03794,-3.61735 17.54871,-75.80392 4.40264,-59.62608 -32.27879,-16.38037 -26.74486,10.57651 -26.142,31.31373 0.99415,19.7162 -7.34721,36.86052 21.73936,28.31235 z M 896.5,272.22034 c 23.0143,-9.61862 32.57282,-27.32845 -0.17218,-15.01271 -27.8552,-5.6602 -21.7086,32.32473 0.17218,15.01271 z m -269.77083,4.17549 c -3.9597,-2.10138 -0.93456,2.25342 0,0 z m 86.53986,-0.0518 c -6.6643,-1.82411 -1.20257,1.81729 0,0 z M 785.5,272 c 11.00569,-36.98288 34.78414,15.02495 65.15135,-7.43463 -6.60469,-40.9038 -4.14603,16.05133 21.17155,-4.15931 C 871.64364,197.77597 816.05649,239.927 783.99991,250 c -0.0759,3.41776 0.26336,35.73839 1.50009,22 z M 403,258.5 C 410.33991,235.63685 389.20491,241.24862 373.93029,241 343.79987,242.89699 411.4215,301.72636 403,262.78786 v -2.64243 z m 1.74613,-10.19806 c -0.96343,24.2987 0.78134,26.04528 0,0 z M 718,275 c 2.47946,-3.93854 -7.32841,4.19286 0,0 z m 70.38156,-0.55194 c -0.9913,-3.67792 -2.05813,5.09093 0,0 z m 4.0286,-0.34878 c 3.95134,-8.06974 -9.4478,6.5055 0,0 z m 235.06834,-0.69593 c 9.7092,-4.01942 -24.9672,6.65457 0,0 z M 805.5,272.95308 c 34.57063,-2.59625 -15.13973,-15.09093 -9.19498,1.7 z m 72.19563,0.62728 c -2.85619,-6.37621 -8.9155,4.70283 0,0 z M 722.5,272 c 5.11579,-7.1523 -7.46262,7.27255 0,0 z m 315,-1 c 0.4315,-3.44189 -10.6991,3.7252 0,0 z m 80.6955,-4.40439 c 50.7041,-19.4737 101.3466,-39.53724 150.7423,-62.05788 -22.1523,-29.27399 -80.3002,-36.24373 -116.4892,-56.18158 -23.515,-7.82243 -60.4203,-35.28321 -49.4486,7.21675 0.086,38.80878 -0.2634,77.62415 0.4455,116.4271 4.9611,-1.67847 9.8432,-3.57669 14.75,-5.40439 z M 789.53252,268.25 c 17.05747,3.90946 7.15423,-26.80179 -2.78585,2.55826 L 789.53251,268.25 Z M 791,269.5 c 1.43833,-5.39783 -4.53953,5.56762 0,0 z m 261.3836,-2.48969 c 35.1345,-10.92413 -33.5932,8.52864 0,0 z m -325.46114,-6.22854 c 3.95307,-67.75964 -3.65619,18.76475 0,0 z m -212.23935,5.03073 c -1.92502,0.4337 1.43251,4.38336 0,0 z m 97.1331,-2.83961 c -2.07419,-33.13001 -5.19476,-18.40707 0.67624,4.86799 z m 459.91299,-1.57706 c -3.9598,-2.10137 -0.9346,2.25339 0,0 z m 9.7708,-2.53049 c -6.6973,-1.62078 -9.8303,4.87555 0,0 z M 513.70573,253.75 c -1.53162,1.95145 1.50397,9.97647 0,0 z M 882,257.95431 c -6.01116,-2.86599 55.04963,-12.42778 12.14328,-29.57297 C 853.79433,202.68665 861.53466,250.88998 882,257.95431 Z M 1088.5,257 c 2.7343,-4.11142 -10.1949,4.41264 0,0 z m -179,-3.99906 c 37.1837,-6.01303 -13.99236,-61.14072 12.72375,-87.24346 -10.08861,-33.18383 -78.877,-23.84678 -112.72375,-36.84251 -64.13583,-13.05268 29.79943,16.1172 10.09276,41.5447 -8.45177,0.59717 -46.46043,-3.59666 -30.3079,4.54033 29.61796,-1.59616 67.28521,-4.22617 68.444,36.53223 3.32569,19.05614 73.45621,12.14191 44.39211,40.33951 -17.6164,2.51266 -17.65839,7.22816 7.37903,1.1292 z m 184.2292,2.39489 c -3.9598,-2.10137 -0.9346,2.25339 0,0 z m 4,-1 c -3.9598,-2.10137 -0.9346,2.25339 0,0 z M 515,247.94098 c -3.10612,-3.62658 -1.89758,5.03541 0,0 z m 273.01106,-0.96165 c 1.40325,-14.05986 -11.66196,7.42427 0,0 z M 514.12207,242.325 c -3.52651,-4.34671 2.01049,7.47712 0,0 z M 797,240.78691 c -11.63255,-2.6072 -9.16244,6.84648 0,0 z m 21.5,-7.25035 c 40.11274,3.56249 40.49948,-43.66363 13.87558,-55.09483 -16.13624,-0.17791 -32.27248,-0.35582 -48.40872,-0.53373 3.10603,16.94733 -6.8458,49.46532 5.65822,55.53334 -9.98833,-18.42736 12.9809,21.33066 28.87492,0.0952 z M 815.18664,201.75 c 8.41935,-12.33182 7.32518,12.59949 0,0 z m 49.41851,30.13118 c -8.74729,-20.17422 7.8409,23.29407 0,0 z M 789,237 c -1.20936,-3.65615 -2.46629,3.56228 0,0 z M 502.74399,210.75 c -0.9778,21.81596 0.79989,21.88549 0,0 z m 223.78298,18.40962 c -6.33292,-20.48082 1.59366,15.8622 0,0 z m -289.82584,3.20054 c 5.44519,-18.31468 -42.76289,1.30756 -51.82801,-9.50257 -3.03419,-31.42322 -1.02115,-58.69126 39.12688,-46.81392 34.75176,-1.41511 -2.05995,-11.17978 -16.89232,-6.78482 -18.41611,-2.35553 -33.25353,-1.13369 -26.79142,21.37978 -8.77355,53.11034 12.62969,42.30367 56.38487,41.72153 z m 291.98198,-2.54766 c -1.92502,0.4337 1.43251,4.38336 0,0 z m -336.86356,-8.64083 c 24.78481,-9.72782 -17.28879,3.58623 0,0 z m 10.16514,1.57833 c 14.73182,-6.53226 5.03945,-8.34693 6.17782,-17.86309 18.1936,-15.31111 -14.50862,12.48278 -6.17782,17.86309 z m 2.45729,-7.84388 c 1.79302,-4.20054 7.48252,1.91706 0,0 z m 2.76452,6.04752 c -2.69094,-8.62609 -1.02903,9.7573 0,0 z m 9.5435,2.35703 c 8.08235,-12.28146 14.09358,-7.16803 -2.32836,-3.71148 -4.38488,3.85734 5.33912,5.03923 2.32836,3.71148 z m 14.55054,-0.62119 c 1.39866,-8.93362 16.96905,-4.59483 9.50908,-34.17687 -1.07198,10.93591 -5.88133,6.12056 -6.29276,13.13223 3.90161,3.26096 -15.07779,25.3109 -3.21632,21.04464 z m 4.96709,-4.10661 c 4.74429,-7.32039 -0.49732,3.82252 0,0 z M 435,213.5 c -4.95813,-5.4046 10.83365,-6.58141 0,0 z m 3.53616,-8.44149 c 2.26751,-8.58632 4.96136,-0.4274 0,0 z M 434.28975,222 c -4.76692,-10.91666 -1.27823,4.60415 0,0 z M 423.25,222.33772 c -5.50683,-1.62308 -0.99942,1.75023 0,0 z M 395,221.55902 c -2.3337,-3.43479 -2.88022,1.90558 0,0 z m 13.68311,-1.74652 c -1.92502,0.4337 1.43251,4.38336 0,0 z M 417.5,218 c 13.03649,-17.93504 -2.49883,-7.0067 0,0 z m 207.14378,-1.79411 c -8.72674,0.28217 3.33677,1.8369 0,0 z M 388.5,202.99691 c -1.24808,-41.70644 -1.74258,42.87988 0,0 z m 5.5,12.94638 c 17.82947,-5.29557 -7.3003,0.64577 0,0 z m 162.68311,-2.13079 c -1.92502,0.4337 1.43251,4.38336 0,0 z m 74.58592,1.53156 c -6.6643,-1.82411 -1.20257,1.81729 0,0 z m 77.48097,-0.0334 c -7.74545,-1.55624 -1.48708,1.6085 0,0 z m -297.05701,-4.04164 c -1.65823,1.2799 1.47998,6.59088 0,0 z m 227.03618,3.1268 c -3.9597,-2.10138 -0.93456,2.25342 0,0 z m 61.53986,-0.0518 c -6.6643,-1.82411 -1.20257,1.81729 0,0 z M 419,213 c -2.55494,-3.58745 -2.55494,3.58745 0,0 z m 228.25,0.33772 c -5.50683,-1.62308 -0.99942,1.75023 0,0 z m 44.5,-0.0271 c -7.74545,-1.55624 -1.48708,1.6085 0,0 z M 399.2836,209.9765 c 7.52538,-15.52477 0.15484,-7.30543 -6.2491,1.40881 1.43871,-0.35547 6.63852,2.01625 6.2491,-1.40881 z M 427.5,209 c 0.86904,-16.01901 -1.58761,-17.07775 -4.51204,-29.02251 -16.36927,10.84718 7.9162,-0.61067 4.3e-4,20.02251 -7.6422,-25.51021 2.59089,16.06476 4.51161,9 z m -6,-24 c 2.55494,-3.58745 2.55494,3.58745 0,0 z m -5.56724,20 c -5.06131,-0.22426 -1.82833,11.55231 0,0 z m 13.35699,1 c -0.70891,-6.96035 -2.28182,6.96363 0,0 z m -17.48142,-0.075 c -3.37708,-3.89373 -3.37708,3.89373 0,0 z m 10.8768,-0.30314 c 3.90575,-8.76725 -5.51398,3.85529 0,0 z M 395.5,204 c -4.70357,-7.32755 -4.72104,7.32181 0,0 z m 160.49527,-2.71232 c -2.85398,-5.3203 2.52908,9.94774 0,0 z M 400.08632,200.25 c 5.56377,-27.81018 -8.447,2.75487 0,0 z m 7.652,-0.25 c -6.22596,-7.18124 17.57018,-0.32013 -0.93333,-8.20496 0.31071,-1.28677 -4.14398,13.97799 0.93333,8.20496 z m -0.11249,-5.5327 c -0.97596,-8.69478 7.71492,6.98818 0,0 z m 122.55843,4.30413 c 35.64519,-0.11301 9.12386,-0.5516 -12.01131,-0.63562 -33.42713,2.53955 19.11484,0.68254 12.01131,0.63564 z M 298.9739,174.75 c 17.20775,-40.42764 -37.64459,-94.06806 -0.0367,-119.593824 16.42903,-36.109677 10.07954,53.096894 13.36568,69.137164 -0.52174,28.80465 -2.80341,30.14065 -1.12787,1.62707 -2.70195,-17.69509 1.5186,-80.522621 -7.72985,-75.443634 -42.99423,24.230663 9.31302,68.990194 -3.48959,107.821184 0.33955,21.4677 -1.72197,52.63753 6.80544,12.07425 19.50913,-6.65847 50.06246,-0.69326 36.31731,-38.00205 C 336.26646,98.602314 345.84862,71.813995 384.8,80.8 396.51772,50.614145 349.2154,73.740246 340.16642,62.169837 351.65148,28.944633 309.20768,43.01732 290.96552,40.485558 246.16717,48.004032 198.4576,50.555733 156.56261,67.710113 155.24971,111.3406 156.37565,155.98129 156,200 c 47.66667,0 95.33333,0 143,0 -0.009,-8.41667 -0.0174,-16.83333 -0.0261,-25.25 z m 8.13617,-8.25 c 2.33842,-20.08393 4.21997,-13.20712 0.0167,2 z m -0.19802,20.25 c 2.73206,-36.88374 -11.35161,31.66401 0.0529,7.96526 -0.0176,-2.65509 -0.0353,-5.31017 -0.0529,-7.96526 z M 428,197 c -2.46629,-3.56228 -1.20936,3.65615 0,0 z m 6,-4.44098 c -2.3337,-3.43479 -2.88022,1.90558 0,0 z m -21.71295,-7.67018 c -14.33169,-15.75534 5.2421,12.42266 0,0 z M 437,190.5 c -6.03143,-5.96105 2.39601,5.31221 0,0 z M 395,190 c -2.55494,-3.58745 -2.55494,3.58745 0,0 z m 10.60104,-2.45343 c -7.20644,-12.14759 3.00038,11.84016 0,0 z m 27.58689,-2.31726 c 17.78082,-2.66315 -15.73101,-10.97967 -0.67201,3.05137 l 0.17198,-0.24553 0.5,-2.80584 z M 410,188 c -7.40751,-11.30294 -10.53811,-0.82771 0,0 z m -18.06238,-3.11655 c 4.56768,-18.68611 -9.59645,5.3825 0,0 z M 397,187 c -2.55494,-3.58745 -2.55494,3.58745 0,0 z m 41,0 c -2.46629,-3.56228 -1.20936,3.65615 0,0 z m -42.5,-3 c -2.56315,-3.70389 -3.84426,3.58521 0,0 z m 2.84934,-1.53203 c -3.0116,-5.16843 -0.15978,6.72445 0,0 z M 396,181 c -1.20936,-3.65615 -2.46629,3.56228 0,0 z m 20.25,0.33772 c 3.29384,-4.46018 -5.72493,-2.70501 0,0 z M 403,179 c -2.56315,-3.70389 -3.84426,3.58521 0,0 z m 215.07569,-12.63144 c 6.0971,-7.66365 -8.81595,8.04988 0,0 z m 164.6675,-22.66766 c -0.96236,23.43916 0.7959,21.62737 0,0 z m 37.59882,23.97444 C 826.14038,144.53732 772.64241,113.18055 784,152.09712 c -7.26111,26.11191 22.07711,10.3245 36.34201,15.57822 z M 405.6099,164.25086 c -39.31323,9.84067 -5.64325,-44.98751 18.01142,-39.819 C 419.07513,98.194066 365.84383,63.046218 344.57687,92.417108 343.65966,116.60007 344.1088,140.80575 344,165 c 21.04255,-0.15267 42.08675,-0.14645 63.1276,-0.47352 z M 425,143.5 c 11.49578,-48.807434 -70.14023,25.64805 -18.5,17.5 17.97594,1.16414 20.93665,2.29199 18.5,-17.5 z m 675,6.74344 c -13.9465,-19.05623 -57.2194,-15.70448 -80.7915,-27.48557 C 976.30609,112.1921 931.87324,96.967727 889.98469,89.25 c -9.04825,11.95217 -81.94768,1.094309 -32.84094,12.99576 27.06161,11.70667 87.09183,-8.846328 84.15933,34.75424 35.73163,1.16989 72.24342,-2.31209 107.49432,1.72412 15.4778,2.5151 44.4206,22.35449 51.2026,11.51932 z M 434.74507,127.75 c -0.9576,24.46998 0.78353,24.5295 0,0 z m 11.14019,25.79048 c 30.7858,-11.44599 33.3098,-46.86396 -2.57781,-35.54048 -15.20748,-0.43833 -3.65694,25.88136 -7.30745,37 3.338,-0.0698 6.72839,0.36915 9.88526,-1.45952 z M 930.91018,149.25 c 29.24429,-52.565289 -61.67653,-36.4092 -92.01991,-45.11448 -0.55766,17.95373 -26.72414,5.07984 -38.93523,8.86448 -41.92586,2.57415 17.01147,11.83529 31.84564,10.58746 33.4107,-1.51121 73.40196,31.44811 99.1095,25.66254 z m -29.99351,-4.6657 C 863.81509,130.7698 824.072,118.86768 784,121.98095 c 38.34975,9.06504 77.99512,15.47061 116.91667,22.60335 z m 198.81253,-2.18847 c -3.9598,-2.10137 -0.9346,2.25339 0,0 z M 1090,139.92747 c -25.0649,-6.99906 17.5799,6.87483 0,0 z m 10,-1.30615 C 1067.1156,121.7941 1026.0947,114.66207 990.26648,101.34695 957.20246,90.343619 923.53581,81.341976 889.91086,72.242404 885.48795,91.845336 911.67177,86.874197 923.63662,93.319436 982.02936,109.10269 1040.325,125.26116 1098.75,140.91268 Z m -19.2708,-1.22549 c -3.9598,-2.10137 -0.9346,2.25339 0,0 z M 1075,135.86968 c -50.0169,-14.46643 -11.1167,-0.69819 0,0 z M 426.68311,133.8125 c -1.92502,0.4337 1.43251,4.38336 0,0 z m 356,-1 c -1.92502,0.4337 1.43251,4.38336 0,0 z m 316.96869,-4.49405 C 1014.3613,97.425179 927.80566,67.895433 838.55,51.07292 c 25.02882,7.297022 47.03752,15.11542 69.80851,25.059548 28.60986,8.66637 55.14935,15.292838 82.01711,17.964277 29.26678,17.741145 67.34068,26.843685 103.13758,38.566385 6.2925,3.32583 6.841,1.8363 6.1386,-4.34468 z M 1046.5,128 c -9.575,-3.16598 4.9988,3.27932 0,0 z m -5.05,-0.92708 c -22.3248,-8.14823 -16.5084,-1.91181 0,0 z m -19.5333,-5.4717 c -23.39835,-8.6689 -44.79199,-9.34277 0,0 z M 589.78048,119.75 c 0.43638,-19.66397 -41.00122,0.34985 -32.96421,-11.92772 -7.059,-26.829254 25.13536,25.91293 22.14133,-9.585857 C 576.86481,80.042199 588.70926,39.706327 557.71625,50.75 551.29782,38.665763 516.25809,37.204296 530.98693,69.184323 535.66161,83.054304 519.94321,115.9952 543,111.87981 c -39.6818,9.70151 39.60087,10.98835 46.78048,7.87019 z M 557.17594,89.5 c 2.24999,-29.737646 1.5807,12.48963 0,0 z M 557.15731,69 c 2.33663,-29.037892 1.75583,11.696593 0,0 z m -32.34314,48.14369 c 8.3,-12.85598 -38.37242,-0.99974 -2.17989,-9.45591 5.5101,-12.836836 2.19624,-26.810506 1.90364,-39.746583 8.43185,-13.249729 -6.95854,-10.664728 -30.3998,-12.002263 C 491.48591,71.33735 493.78206,91.718464 493,109 c 22.85172,-1.07805 -17.16539,11.47595 17.71956,9.88697 l 10.16117,-0.40682 3.93343,-1.33646 z M 462.75,116.2545 c -25.85194,-0.77628 -25.79651,0.94865 0,0 z m 25.5,-1.86464 C 503.62425,75.030038 475.83592,71.320168 443.5,79.569594 c -15.82333,8.857857 -47.42034,9.622685 -23.72522,29.249916 17.20363,14.34169 47.2711,0.9323 68.47522,5.57039 z m 503.25,-1.32352 c -11.29224,-3.83257 9.3331,1.20145 1.26448,0.69629 z m -491.23097,-2.72228 c -6.6643,-1.82404 -1.20257,1.81749 0,0 z m 21.49263,-0.0311 c -8.96109,-1.6727 -1.61654,1.65996 0,0 z m 3.53601,-0.64625 c -1.95853,-4.66144 -1.95841,4.66136 0,0 z m 308.88316,0.23655 C 832.7621,92.905257 843.09061,59.521786 830.8235,48.317406 814.19768,48.846693 776.95362,25.481527 784,55.119724 c 0,18.643062 0,37.286124 0,55.929186 16.72159,-0.26563 33.51679,0.48841 50.18083,-1.14565 z M 965,105.90734 c -16.94415,-4.55517 -57.51413,-16.545321 -66.83802,-17.387331 19.12166,4.904158 84.11119,24.005731 73.47513,19.299581 z M 560,109 c -1.20936,-3.65615 -2.46629,3.56228 0,0 z m 27.08179,0 c 9.09319,-6.83107 1.3546,-30.493921 3.91821,-43.854568 2.24585,-24.007452 -19.2472,-8.17598 -11,8.993992 3.18708,8.965097 -8.05356,38.720456 7.08179,34.860576 z m -59.80241,-3.03966 c -2.87319,-5.9012 1.26787,6.88782 0,0 z M 408.65499,96.171259 c 0.58415,-11.018459 -6.47433,-1.474544 0,0 z m -5.18431,-5.078878 c 9.6519,-13.651106 -12.97102,0.0615 0,0 z M 868.25,92.259603 c -16.60331,-0.842753 -16.50151,1.031058 0,0 z m 18,-1.16852 C 907.68449,57.199251 828.63227,40.824212 838.05896,74.360058 829.4264,104.93525 869.63765,86.357957 886.25,91.091083 Z M 426.69567,88.044003 C 454.4987,58.223712 391.68647,54.968227 409.30751,84 c 3.04096,6.97143 11.77908,7.017953 17.38816,4.044003 z M 396.75,87.75 c 6.88226,-8.663595 -8.57754,0.1953 0,0 z m 2.62843,-7.777642 c -3.36607,-26.453482 0.5166,16.07017 0,0 z m -2.88999,-4.068831 c 8.21089,-33.909942 3.57625,27.563003 6.12007,-8.369185 11.44038,-9.490892 -9.27087,-8.488019 19.12782,-8.732391 7.99053,23.68135 60.65988,27.150286 68.26367,9.078509 10.45113,-18.5511 -48.84396,-2.633169 -47.26639,-5.471211 15.97264,0.686287 69.00091,-3.433233 25.33523,6.474621 -39.62076,5.298244 -32.48886,-24.017168 -32.48058,-57.79378 -0.59463,34.954262 4.6368,-10.34338136 31.92554,1.98086 20.32278,-8.0412686 13.77575,28.891565 10.90441,1.536039 C 450.75337,1.3682328 422.15727,34.850426 462.13942,29 477.50906,29.309165 496.94929,33.688927 490,11.679169 462.77185,5.6138505 427.27148,11.33732 397.32272,9.9947394 371.5468,16.413702 414.78704,25.050544 425.14243,19 445.795,30.355274 423.94692,72.236147 393.85671,54.015651 382.84919,27.076903 390.1512,108.2204 396.48844,75.903527 Z M 413.46666,62.13333 c -10.74818,6.754812 -9.11827,12.54584 0,0 z M 603,66.419561 C 656.8464,60.614965 711.70606,62.409766 765.76837,65.132794 808.45862,62.091731 732.77233,49.734647 716.80511,49.475374 678.48428,38.553617 639.09037,33.540075 598.02839,30.865631 612.94675,25.566487 672.14379,45.675328 688,33.89094 684.48801,11.097934 639.53667,25.250554 620.30048,17.046713 584.6975,-8.7178702 586.2828,70.699962 603,66.419561 Z m 58.90737,-35.897172 c -43.72509,-9.626076 57.14821,-1.213556 9.4722,0.924337 z M 617.5,26.897083 c -37.86806,-4.079531 11.76329,-10.17816 20.26795,-0.252202 -6.22167,2.913108 -13.72842,0.08011 -20.26795,0.252202 z M 475.38398,66.831422 c 12.13285,-3.172143 -34.19537,2.084954 -4.88398,-1.596225 -34.36019,-1.373283 -24.30006,3.729805 4.88398,1.596225 z M 171.5312,60.025251 C 216.47064,49.349056 262.31699,43.342911 308,36.909374 c 14.38733,-25.289412 -51.89198,-8.470007 -14.15005,-19.69262 10.42386,-1.375987 60.60423,9.415699 39.64336,-5.595718 -59.36803,2.652176 -118.48796,8.799278 -177.49336,15.663877 4.19948,16.821298 -13.54171,52.259149 15.53125,32.740338 z M 528.68311,64.8125 c -1.92502,0.433696 1.43251,4.383354 0,0 z M 446,64.606989 c -0.45577,-2.685031 -5.91336,0.896211 0,0 z m 6,-1.10637 c -19.39413,-4.019146 12.23307,4.830921 0,0 z m 22.25,0.8371 c -5.50683,-1.623067 -0.99942,1.75022 0,0 z M 485,64 c -3.90318,-3.653135 -3.90318,3.653135 0,0 z M 348,55 c -3.89057,-9.607258 1.4867,-33.337022 3.98095,-9 11.3666,-25.964585 0.78535,-8.716463 6.71531,-1.412926 -0.14029,-31.040383 3.87169,23.144388 10.06129,-12.313637 -0.95752,35.955087 5.5784,-24.2482596 4.60489,12.542963 C 385.17458,41.135535 377.22565,25.363254 381.5,46 378.06047,56.379863 375.06769,65.308089 373.31583,49.199367 369.94507,76.564882 395.41055,58.568504 386,39.218148 388.05891,19.06077 388.38788,0.13343532 360.61456,10.399866 330.64148,2.9624565 347.5105,40.515732 343.27792,57.124505 341.02868,64.904085 354.15538,64.234502 348,55 Z m 11.17202,-0.05596 c -1.7666,-23.682642 -11.93282,28.330746 -5.8789,-7.051348 -14.02952,3.57994 6.85591,31.306522 5.8789,7.051348 z m 3.79645,2.30596 c 4.52431,-30.142358 -7.45514,17.291839 0,0 z M 372,55.608408 c -7.19914,-26.262567 -10.31069,25.392013 0,2.106736 z m 107.4319,3.250313 C 504.43117,46.313 487.26503,19.968029 463,30 c -21.16692,-6.04457 -38.78599,5.572949 -22.12305,26.62507 12.14654,4.909498 25.90889,5.381804 38.55495,2.233651 z M 454.04775,55.05067 C 425.21734,31.032304 459.16362,30.881858 478.98167,42.567773 478.2655,55.65682 464.23441,57.776667 454.04775,55.05067 Z m 17.8632,-2.814039 c 16.79828,-23.937892 -47.61678,-12.633798 -15.67282,2.049368 5.24502,0.7496 10.91058,0.539075 15.67282,-2.049368 z M 458.63837,43.5 c 0.9307,-12.716865 11.3351,5.808979 0,0 z M 443.5,36 c -1.20936,-3.656153 -2.46629,3.562285 0,0 z M 780.54398,47.589504 C 769.40649,31.651793 706.2732,20.612257 691.01134,30.524919 c 11.96334,25.607916 61.1547,15.065343 88.91334,24.784792 l 0.61929,-7.720207 z m -375.47361,5.475151 c 0.50727,-20.334369 -28.58544,3.969257 0,0 z m 23.56496,-1.616177 C 432.36358,39.936034 426.96551,27.450778 415.63837,32.5 394.03268,22.722646 378.21218,45.17993 405.3889,44.21269 c 32.82954,-5.138934 -2.27394,6.944403 20.32748,9.304627 z M 425,45 c 2.55494,-3.587453 2.55494,3.587453 0,0 z M 397.07895,33.416667 c 1.4433,-2.663265 0.44609,4.311428 0,0 z M 528.99923,47.25 C 529.98387,36.416255 493.5516,38.218153 493,46.284856 486.13197,55.859362 534.05635,58.417171 528.99923,47.25 Z M 415.55887,51.5 c -2.37154,-11.422475 -16.82399,4.660659 0,0 z M 591.5,32.523783 C 599.48999,-2.2731941 547.57375,18.594925 527.59993,10.930945 506.83841,8.3513818 485.15777,5.133896 493,32.273032 504.03397,48.910681 547.63281,32.080586 568.61867,47.80614 589.95211,51.895902 594.05871,54.443229 591.5,32.523783 Z M 392,38.071429 c -5.43181,-4.547853 -1.83579,9.492829 0,0 z m -55.19191,-0.802671 c -21.46221,-4.058305 -30.68307,5.733813 0,0 z M 326,35.442244 c 46.50223,-1.865369 -25.63528,-33.5566032 -14.45758,1.240339 4.86152,0.232033 9.59077,-1.378111 14.45758,-1.240339 z m 104.69299,-3.173212 c -1.65823,1.279897 1.47998,6.590876 0,0 z M 411.75,32.310674 c -7.74545,-1.556215 -1.48708,1.608476 0,0 z M 398,28.5 c -15.7034,-1.14492 25.47547,-11.502431 -4,-6.5 -4.58886,-2.578033 -5.27667,13.280936 4,6.5 z m 8,0.559017 c -4.36022,-4.622924 -8.11939,4.683986 0,0 z m 1.68311,-1.246517 c -1.92502,0.433696 1.43251,4.383354 0,0 z M 413,26.5 c -5.00802,-12.668484 -4.09301,12.202115 0,0 z m 1.71758,-3.23625 c -1.47716,2.298676 1.41987,10.972819 0,0 z m 4.7233,4.947256 C 423.0494,23.436583 432.08773,16.301574 416,22.642428 c -3.67896,5.217341 6.42217,10.768528 3.44088,5.568578 z m 11.47317,-3.647867 c -2.14569,-5.659993 -8.93176,15.944261 0,0 z M 407.66228,21.75 c -1.75023,0.999422 1.62308,5.506826 0,0 z"
       id="path3726" />
  </g>
  <g
     inkscape:groupmode="layer"
     id="layer1"
     inkscape:label="DC System"
     style="display:inline" />
  <g
     inkscape:groupmode="layer"
     id="layer2"
     inkscape:label="AC System"
     style="display:inline" />
</svg>
