<?xml version="1.0" encoding="UTF-8" standalone="no"?>
<!-- Created with Inkscape (http://www.inkscape.org/) -->

<svg
   version="1.1"
   id="svg3333"
   width="1279"
   height="404"
   viewBox="0 0 1279 404"
   sodipodi:docname="BlankB473.svg"
   inkscape:version="1.1.2 (0a00cf5339, 2022-02-04)"
   xmlns:inkscape="http://www.inkscape.org/namespaces/inkscape"
   xmlns:sodipodi="http://sodipodi.sourceforge.net/DTD/sodipodi-0.dtd"
   xmlns="http://www.w3.org/2000/svg"
   xmlns:svg="http://www.w3.org/2000/svg">
  <defs
     id="defs3337" />
  <sodipodi:namedview
     id="namedview3335"
     pagecolor="#ffffff"
     bordercolor="#666666"
     borderopacity="1.0"
     inkscape:pageshadow="2"
     inkscape:pageopacity="0.0"
     inkscape:pagecheckerboard="0"
     showgrid="false"
     inkscape:zoom="1.7050174"
     inkscape:cx="121.40638"
     inkscape:cy="182.40283"
     inkscape:window-width="1920"
     inkscape:window-height="1008"
     inkscape:window-x="1920"
     inkscape:window-y="0"
     inkscape:window-maximized="1"
     inkscape:current-layer="g3339" />
  <g
     inkscape:label="Image"
     id="g3339"
     style="display:inline">
    <path
       id="path3362"
       style="display:inline;fill:#000000"
       d="M 463.93555,7.2304688 C 344.49435,6.3384695 224.69681,13.392028 106.79808,32.846697 63.409098,41.643243 9.4595438,64.232255 12.327119,117.09826 c -2.7383826,62.76348 -5.7753685,126.44955 3.259756,188.77483 11.356491,48.31767 68.915367,57.25745 109.913185,66.58575 309.71506,43.85365 632.10896,26.70459 928.05954,-79.53026 73.4869,-25.94282 146.3698,-54.41264 217.3189,-86.47755 -12.4613,-33.80027 -75.8832,-36.6475 -108.3735,-56.73029 C 970.27453,70.758795 765.7335,20.702378 557.86615,10.400408 526.59324,8.4672283 495.26962,7.3278677 463.93555,7.2304688 Z M 490,9.078125 C 496.41642,31.122802 480.49624,30.830872 463.03711,29 440.88517,40.809966 429.25191,5.0626181 435.42969,33.822266 421.60412,60.848265 456.17025,72.963187 467.2286,68.310995 443.82938,66.830549 445.10625,63.346623 454.91206,65.404748 446.45525,62.726167 430.42238,57.496054 452.63477,60 c -30.83535,-5.955295 -17.96569,-42.462577 9.78732,-30 19.9969,-2.931358 35.39454,-0.643341 27.2616,24.05083 -6.49282,0.754389 11.54407,30.349265 -17.61571,22.154033 -32.87614,21.926737 -53.69063,-42.727947 -75.03282,-6.025175 3.87541,-11.262845 9.73371,8.29254 2.82812,8.101561 -8.90246,16.988061 6.33633,0.467193 -9.97851,3.50586 -3.15,-22.194725 1.69586,-43.71622 -1.25,-56.787109 21.89022,-12.526793 16.20757,1.787636 3.36523,6.699219 13.61857,-9.255619 16.05842,7.501917 24.36672,-2.506991 -0.051,-23.8732062 22.75689,1.609264 15.3263,6.465017 C 441.72171,11.769273 408.7425,16.035568 409.39286,29.3125 421.00293,13.557642 369.03348,21.914806 395.5,9.8164062 426.98066,8.7086385 458.50338,9.2299746 490,9.078125 Z m 3,0.2519531 C 521.33983,20.68204 590.89795,-7.3475234 592,32.519531 600.26627,63.56366 561.99036,45.337549 545.33604,41.520698 528.50087,36.314811 510.39194,40.22405 493,39 c 0,-9.889974 0,-19.779948 0,-29.6699219 z M 386,9.9199219 C 386,27.613281 386,45.306641 386,63 361.98306,73.458609 380.59579,26.409665 375.00781,62 384.25857,47.199808 384.86994,28.822872 373.3704,44.869715 375.04188,9.5802389 366.30699,70.415745 368.62891,31.09375 362.98678,66.319181 359.38862,15.289895 357.5,46 360.5841,13.139922 349.95529,66.57798 349,32 345.63108,44.805721 346.99986,81.675395 343.01922,44.22065 338.07204,17.684323 344.6132,1.2276286 376.03386,10.064155 379.35591,10.016077 382.67795,9.9679996 386,9.9199219 Z M 340.73242,11.400391 C 325.80659,18.224897 356.42305,37.748833 326.60742,39 c -14.487,3.491538 -20.29449,-10.830815 -9.10547,-21.554688 -24.5635,-6.198155 -56.54307,10.589721 -10.75195,5.44336 -4.95498,33.045502 48.51044,2.756626 35.00781,41.759766 18.27291,-5.867703 68.60855,3.549154 31.61865,17.333652 -20.60609,-1.570924 -44.12302,9.678066 -9.69519,0.9445 32.80965,-8.969809 68.79506,54.36404 63.30772,45.7156 5.95254,29.66109 -7.12948,37.97534 -35.8598,32.35781 -22.26068,-1.65778 38.00784,7.14578 7.26964,3.66225 -16.66098,-2.21369 -42.01549,4.26933 -54.41469,-2.30441 -0.14617,-24.28594 -0.29112,-48.57189 -0.43531,-72.85784 -0.42764,25.0593 -0.58561,50.12565 -1.33008,75.17773 -36.18743,-15.05118 -30.72152,28.54693 -41.83398,33.57227 0.46151,-7.51821 -1.26209,-72.62496 -1.04443,-40.53939 -3.29776,12.66343 6.37221,38.3967 -5.62476,42.28939 -45.90519,0 -91.81039,0 -137.71558,0 0,-44.0306 0,-88.0612 0,-132.091797 27.26762,-14.714687 11.87583,-3.841586 -0.42773,-2.990234 C 144.33474,25.550174 169.935,19.770391 204.38388,21.766467 249.70548,16.96996 295.18266,13.008271 340.73242,11.400391 Z M 461.3125,13 C 437.17877,6.3904103 433.40917,41.352577 448.87243,14.093331 464.7325,14.016099 500.555,15.933967 461.3125,13 Z M 593.5,14.763672 c 31.71404,2.360731 63.35592,5.660533 94.89453,9.736328 -14.74619,29.705129 32.21505,21.742397 52.87695,27.865234 16.62371,-3.648169 62.66912,17.812654 24.20193,13.033791 C 712.55182,61.541644 658.875,62.283035 606,65.761719 582.38296,79.686352 598.02272,27.497771 593.5,14.763672 Z m -292.6875,3.552734 c 4.38343,-1.43124 0.43076,1.927899 0,0 z m 4.4668,0.0625 c 2.20446,2.951456 -1.21612,3.296839 0,0 z m 2,0 c 2.20446,2.951456 -1.21612,3.296839 0,0 z m 7.53906,0.05664 c 3.02713,1.592734 -5.74719,3.646289 0,0 z m -29.00586,0.761719 c 6.87288,3.012662 -5.26832,4.156522 0,0 z m 11,1.11914 c 4.38343,-1.43124 0.43076,1.927899 0,0 z m 110.55469,0.726563 c 1.66308,6.609796 -0.85483,3.127071 0,0 z m 198.18164,0.04687 c -7.35762,12.346328 62.71308,3.516461 11.36291,0.673657 l -4.94627,-0.408927 -6.41664,-0.264724 z m -276.82031,0.179687 c -15.40097,-1.36134 -3.2264,1.391069 0,0 z m 85.69336,0.654297 c 1.50523,11.201494 -0.80699,3.948992 0,0 z m 7.24023,0.919922 c -14.55768,17.625363 15.71556,4.886218 0,0 z M 610,23.085938 c 8.24832,1.937228 -1.41758,1.900686 0,0 z m 22.26953,1.02539 c 3.50122,2.21506 0.6284,4.205402 0,0 z m 18.65625,0.853516 c 7.28012,14.032101 59.58256,2.156066 11.2108,0.404549 l -4.98763,-0.373711 -6.22322,-0.03084 z M 691,25.095703 c 29.94291,2.927884 59.7095,8.711358 89.5,13.404297 2.59353,38.222909 -64.57304,-1.851686 -88.73242,2.158203 C 690.75812,35.505497 691.06459,30.291958 691,25.095703 Z m -26.25,2.242188 c 5.5069,-1.621806 0.99962,1.748627 0,0 z M 152.11523,28 C 153.10235,143.26389 154.07302,258.63774 151.75,373.86719 108.73874,367.88891 60.993328,360.06414 28.504592,329.05598 3.4790979,282.01204 15.396737,225.96036 12.57605,174.69737 14.175274,132.63164 6.0225562,73.307862 54.047436,53.757273 84.621088,38.7261 118.41595,31.515744 152.11523,28 Z m 529.94336,1 c 3.58036,2.596052 -4.73626,1.52312 0,0 z M 426.5,30 c -12.87356,3.898529 10.05056,1.732751 0,0 z m 171.26172,0.292969 c 1.81391,1.543991 8.76845,-1.454846 0,0 z m 10,1 c 1.81391,1.543991 8.76845,-1.454846 0,0 z m 9.48828,0.990234 c 2.40724,1.480493 12.20398,-1.463684 0,0 z m -208.48828,0.0098 c 8.76845,-1.454845 1.81391,1.543988 0,0 z m -11.48242,0.08594 c -1.21607,3.297188 2.20456,2.951098 0,0 z m 230.9707,0.90426 c 2.40724,1.480493 12.20398,-1.463684 0,0 z m -185.22266,0.742188 c -9.70833,13.860614 40.47515,37.972512 32.38086,4.671875 -10.61224,-2.672011 -22.7948,1.425131 -32.38086,-4.671875 z M 639.25,34.283203 c 2.40724,1.480493 12.20398,-1.463684 0,0 z M 391.5,35 c -4.74683,2.293236 5.68366,4.105194 0,0 z m -63.25,0.283203 c 2.40724,1.480493 12.20398,-1.463684 0,0 z m 322.65234,0.263672 c 17.11021,3.094106 14.17594,-0.226112 0,0 z M 667.25,37.310547 c 1.48716,1.60747 7.74549,-1.555305 0,0 z m -212.55664,0.910156 c 47.78723,-8.856546 0.09,38.769275 -7.9668,3.302735 4.25373,-0.711278 13.35807,8.014555 7.9668,-3.302735 z m 221.57031,0.0625 c 2.29859,1.477378 10.97285,-1.42001 0,0 z M 299.75,38.294922 c 1.9514,1.532397 9.97645,-1.504712 0,0 z M 784,39.050781 c 33.97674,2.122452 63.42266,9.369027 51.98921,49.344106 C 850.99354,118.61129 786.785,118.56447 784,103.07337 c 0,-21.340861 0,-42.681725 0,-64.022589 z m -322.61914,0.146485 c -11.28039,6.46927 10.67316,8.432657 0,0 z m -168.11133,0.109375 c 1.27992,1.65821 6.59081,-1.479777 0,0 z M 391.5,40 c -5.24709,2.374012 5.28218,0.864138 0,0 z m 38.37305,0.115234 c 4.56915,17.70245 -17.78439,12.587697 -17.93752,4.314454 -20.36572,11.574374 17.00467,1.966298 -8.67975,10.156747 10.72887,0.516213 37.54087,3.743208 26.61727,-14.471201 z m -145.11133,0.177735 c 1.81391,1.543991 8.76845,-1.454845 0,0 z m 21.16406,0.251953 c -20.3104,18.666021 -26.26112,50.08216 -11.73915,63.391838 -24.15893,-22.09521 2.42403,-54.270461 12.96376,-53.18676 1.4309,9.85465 1.04552,-9.143701 -1.22461,-10.205078 z M 493,41 c 12.5346,3.393542 41.06497,-9.20869 36,11.784418 -8.88906,-0.930908 -39.31479,9.266546 -36,-7.926627 v -2.642209 z m 39.75,0.002 C 547.82423,55.326728 584.23762,38.308437 579,68.909941 574.87523,82.034866 589.41565,117.13976 567.02344,109 c -17.79842,0.78303 -0.79746,-20.097147 -14.38172,3.33753 15.09512,-5.61371 63.56905,5.57729 17.21009,8.6503 -9.56926,3.6584 -57.17827,-3.13684 -27.42212,-9.10111 -22.24005,4.10042 -6.9773,-28.047504 -11.42798,-41.387097 C 531.90514,60.969841 529.26977,49.749738 532.75,41.002 Z m -255.5,0.308594 c 1.48716,1.60747 7.74549,-1.555305 0,0 z m -4.75,0.888672 c -27.03857,1.015236 2.04427,2.270161 0,0 z m -15,2.033203 c -19.28996,2.460637 5.87468,1.032546 0,0 z m -10.88867,1.876953 c -26.04854,2.593111 -34.70422,7.463737 -2.71884,0.800699 z M 352.09766,47 c 1.76907,22.306165 -3.82632,7.13671 6.60547,1.19371 -1.68327,33.514309 7.83752,-23.488285 4.72037,12.079351 10.02932,-30.678129 13.95355,18.682737 -13.50748,2.31483 C 352.43161,58.849517 346.33072,49.514945 352.09766,47 Z m 38.24609,0.539062 c 1.07465,8.343145 11.77622,12.102514 0,0 z M 838.58203,50 C 927.45315,68.964959 1014.1268,96.947156 1099.5,127.82227 1087.4052,143.17866 1034.3044,107.1725 1009,106.06836 1008.0703,91.286819 943.11363,84.272675 983.32735,99.037325 1021.6048,112.9064 1064.7972,121.01519 1100,138.62109 c -13.5997,2.90336 -47.2919,-12.27876 -12.1141,1.2701 -28.0426,-5.86989 29.3302,9.72771 1.5047,0.38419 25.5415,5.38776 -5.9407,15.22892 10.3485,25.72088 0.4337,26.16523 0.168,52.33591 0.2253,78.50373 -19.3346,5.90172 -50.5851,18.00946 -11.8752,4.8774 31.5327,0.16464 -1.6917,28.72733 -21.2606,25.98387 -24.4954,8.10746 -136.62284,42.45574 -109.30295,35.40152 47.59905,-13.88319 94.55765,-30.83305 142.15865,-44.13711 -8.7525,21.23238 -51.3758,19.98839 -72.0447,32.51472 -40.78423,12.0131 -84.57944,29.24656 -124.30972,35.44163 -3.85572,-15.21533 33.53395,-12.93281 -3.75,-7.76172 -19.60768,-30.03588 8.08645,-32.62132 21.66797,-37.14062 26.52978,-16.75278 26.32253,42.6497 4.62409,31.13931 30.84326,-4.81266 18.84926,5.39703 21.25277,-24.05468 39.51205,-10.46566 -8.17624,-4.26728 7.37529,-3.64518 -9.59462,3.5031 -39.49136,-14.42165 -15.91211,-13.375 4.01317,-38.04128 -41.2454,-78.51979 -9.66183,-121.05343 6.6581,-26.46297 27.48828,-20.52759 49.23425,-20.559 20.6512,0.36458 95.69879,0.0631 42.98699,-0.9057 -31.06393,-5.6082 -85.55976,16.3986 -87.15399,-24.45472 -25.74556,-7.89969 -85.85579,-2.94905 -93.37385,-18.618691 21.4401,7.300781 59.89572,-9.831294 63.78921,-3.635595 -22.59377,2.128718 -17.46794,-30.634588 3.97414,-14.046291 -22.08829,-2.293844 -24.45568,-25.777928 -21.60312,10.764737 -8.88493,1.877872 -57.90242,16.3857 -48.58363,-11.579079 C 835.81452,58.710738 844.72627,55.7681 838.58203,50 Z m -623.39062,1.128906 c -17.31122,2.122571 11.1598,0.533046 0,0 z M 580,53 c 19.87475,-5.113277 7.76617,21.756774 11,33.284418 7.30117,30.363182 -20.11219,27.934042 -11,-4.676996 C 580,72.071615 580,62.535807 580,53 Z m -375.92383,0.517578 c -23.11224,1.946304 -13.7625,4.707573 0,0 z M 493,56 c 13.22094,3.182736 42.13603,-9.328672 36,13.211044 1.80932,16.569553 -3.6636,35.975866 2.75,50.751846 18.82908,7.50643 44.38578,0.88083 65.17383,2.67188 C 602.28642,113.56352 614.45009,70.386891 618,78.65625 594.26683,77.443778 603.99816,152.0212 594.01609,101.3131 585.79945,72.513115 605.89391,62.135138 633.83311,66.45858 682.39827,68.266969 732.38553,61.068651 780,72.232422 c 0,15.909506 0,31.819008 0,47.728518 -15.48626,-3.0474 -5.55104,-57.426848 -35.5,-42.02344 40.38722,-10.814511 12.95245,43.27305 35.93555,44.0625 0.44404,30.80008 0.068,61.60707 0.0644,92.41016 -33.694,-2.34641 -63.4627,0.0328 -53.21862,42.36172 5.64124,19.19818 -9.85952,-59.50146 24.84167,-39.77188 35.66957,-7.47093 12.19178,53.18539 12.59219,75.78945 -8.50964,19.99736 -82.09816,39.81643 -27.59219,22.70664 37.52627,-11.85105 33.33332,-51.35044 33.19905,-82.9399 0.0368,-27.76222 16.17452,-7.22072 9.67071,10.8659 -2.5264,22.08901 8.55969,49.68586 -14.76644,63.82791 -38.23022,37.66333 -95.49111,25.33662 -143.66554,24.86661 C 597.29294,325.70938 562.6045,309.97877 559,282.6847 c 0,-18.8949 0,-37.7898 0,-56.6847 22.14056,8.32924 1.90193,45.75739 12.01953,63.75 8.24386,18.1789 48.44769,35.86766 61.48047,33.3125 -55.55989,3.86599 -74.68015,-63.50853 -60.78178,-96.91371 44.73808,-14.60825 31.5602,24.97044 45.45366,49.4391 30.7813,1.54287 98.55596,20.44013 108.57224,-14.83352 1.38923,-40.30559 2.45542,-14.64593 -4.4853,9.6403 -21.31222,2.95617 -40.35772,22.35342 -39.25882,-8.24792 -1.45839,-27.91636 -2.91641,-57.12986 24.5,-47.00412 -9.62222,2.83705 -71.31318,-18.48528 -51.5,9.5161 0,17.78042 0,35.56085 0,53.34127 -17.67481,-3.2243 -29.23401,1.92336 -37.04492,-4.19531 -12.84444,-18.7211 0.44138,-65.89258 -45.55105,-49.12093 -29.50148,-7.26977 -10.8475,34.22823 -15.20081,51.52572 -6.19689,32.21029 32.64321,48.86917 57.29678,57.92919 44.36846,1.95158 93.48749,11.15648 134.58831,-10.27129 15.93963,-8.68818 42.01307,-43.26314 28.82843,-4.61507 -26.00718,15.40326 -63.74205,25.8207 -52.66674,52.7555 C 654.27371,382.16365 582.72495,389.72542 511,391 c 1.12775,-17.84329 -7.95878,-46.77399 22,-36.40234 58.93255,-3.81174 -32.68719,-6.49876 -48.32363,-4.70504 -15.83795,11.73365 -30.69713,-9.91588 -26.49082,-4.14262 -8.4983,16.07612 0.40958,-58.98513 -6.17383,-37.25781 -1.46915,-5.45715 -7.46601,3.21871 -14.87595,-0.9387 9.78664,7.07334 -20.6527,-6.72478 -29.26077,2.69651 -13.34161,-21.56689 38.82206,-5.35267 46.19555,-13.16784 8.98456,12.15728 2.0705,41.38019 4.78375,6.09143 -5.04379,-20.59088 91.26247,-3.07862 33.82511,-10.16189 -24.71788,-1.14861 -67.73303,7.45507 -83.5381,4.47999 8.27123,-0.34126 44.30209,-0.90404 35.07454,-1.10564 -11.34095,-4.09924 -39.3852,8.39728 -38.03776,-8.31262 3.83933,-18.17226 -12.99656,-59.60547 16.93338,-51.91593 43.54994,-6.18282 -5.06911,-4.42205 -24.8014,-3.1575 C 374.02003,240.61785 380.37781,217.58787 380,201.29349 382.72541,188.85073 371.30248,162.25962 393.21104,169 c 21.74728,-2.21385 63.68987,7.38721 34.93009,-13.375 -3.589,-13.95506 3.68681,-58.317612 4.85887,-21.77175 -16.98597,49.92855 45.05589,4.76543 38.00977,-8.01536 -3.91254,26.45397 -46.68827,42.5267 -35.00977,5.37769 -5.71664,-26.79127 31.98767,-5.74771 45.32422,-13.57105 20.00633,-0.82908 57.53622,5.1983 14.83897,0.0359 -1.19374,-8.46966 8.84442,-10.46013 4.6958,-8.44558 C 484.74612,109.01531 496.56268,81.689161 493,69.288956 493,64.859304 493,60.429652 493,56 Z m 354.5,0.21875 c -0.8454,2.424858 14.49072,1.316078 0,0 z m -662.6875,1.097656 c 0.43076,1.927896 4.38343,-1.431246 0,0 z m 373.85352,0.390625 c -4.16502,15.890961 1.31052,18.64665 0,0 z m -75.85352,0.609375 c 0.43076,1.927896 4.38343,-1.431246 0,0 z m 374,0 c 0.43076,1.927896 4.38343,-1.431246 0,0 z M 179.75,58.337891 c 0.99962,1.748627 5.5069,-1.621806 0,0 z m 128.65039,0.144531 c -0.8243,3.49021 1.55044,8.93921 0,0 z m 215.875,0.08789 c -2.53784,13.579127 5.85569,9.674053 0,0 z M 862,59.21875 c -2.92691,1.79304 15.24374,1.75428 0,0 z m -383,0.398438 c -22.76585,1.06892 -37.8842,4.912094 0,0 z m -72.17383,0.04687 c 10.72442,7.006586 -14.75136,7.450694 0,0 z m 13.10742,0.490235 c 51.48503,39.464942 -52.81824,36.715897 0,0 z m 64.82813,0.398437 c -34.63798,0.782461 11.72639,10.071279 0,0 z m 386.38867,0.642578 c 10.13857,4.445894 14.32821,1.333224 0,0 z M 527.2793,61.378906 c -1.21607,3.297188 2.20456,2.951098 0,0 z m -113.82618,0.625 c -2.02634,5.850274 -16.9892,13.717239 0,0 z m 67.01368,0.109375 c -2.88666,3.919468 -6.42968,0.257815 0,0 z M 483.5,63 c 5.26898,2.479326 -5.26898,2.479326 0,0 z m -29.75,0.337891 c 0.99962,1.748627 5.5069,-1.621806 0,0 z m 10,0.957031 c 1.9514,1.532397 9.97645,-1.504712 0,0 z m 8,1.042969 c 0.99962,1.748627 5.5069,-1.621806 0,0 z m 6.75,0.832031 c -11.64984,2.256876 3.72076,1.128026 0,0 z m -16.25,0.113281 c 2.40724,1.480493 12.20398,-1.463684 0,0 z m -152.80078,3.380859 c -0.74948,5.343405 1.37883,14.375268 0,0 z m 86.91797,3.378907 c -0.85483,3.127071 1.66308,6.609796 0,0 z M 687.25,76.251953 c 4.17824,0.809033 62.7637,-0.05116 17.75,-0.12279 l -9.45742,0.0307 z m -45.5,0.0039 c 21.8157,0.980107 21.88573,-0.801302 0,0 z M 490.04492,77 c -4.26314,11.066196 8.27373,39.07174 -8.4714,37.54809 -19.37735,-1.21382 -40.8848,2.84098 -58.99729,-1.50137 -13.67981,-11.62202 -8.62879,-26.607618 -23.46548,-24.648224 25.61751,5.195547 54.44932,-16.649043 87.80293,-11.390022 l 2.6422,-0.0072 z M 911,77.140625 c 1.93555,3.915113 7.60308,-0.0424 0,0 z m -285.25,0.154297 c 1.9514,1.532397 9.97645,-1.504712 0,0 z M 524.17969,77.5 c -1.05102,6.828309 3.27336,21.54158 0,0 z m 34.47461,0.414062 c -4.15216,16.776028 1.37422,19.744804 0,0 z m 359.1582,1.402344 c 0.43076,1.927896 4.38343,-1.431246 0,0 z m 3.61523,0.921875 c 17.3633,6.321902 63.7068,17.609523 21.5078,5.427478 -7.14044,-1.912309 -14.20832,-4.1644 -21.5078,-5.427478 z M 892.5,85.142578 c 10.49737,5.506265 14.91753,2.504534 0,0 z m -581.76953,2.578125 c -1.37376,3.820859 1.38454,20.150507 0,0 z m 595.74609,1.615235 c 10.37375,4.556354 12.38228,2.029691 0,0 z m -499.65234,0.490234 c 9.05112,-5.374243 -3.23048,28.012558 0,0 z m 565.85156,1.546875 c 9.51064,3.066236 -3.76014,3.593948 0,0 z M 855.75,92.259766 c 16.60345,-0.843362 16.50135,1.032059 0,0 z m 61.92188,0.01563 c 38.02559,12.791414 46.42833,10.228384 0,0 z m -4.28516,1.005859 c 20.99584,7.463805 89.72228,24.130855 32.99102,8.507185 -10.9964,-2.805112 -21.81414,-6.472799 -32.99102,-8.507185 z M 984,94.001953 c 10.87736,3.275179 10.91313,7.026197 0,0 z m -459.49414,4.316406 c -4.75411,12.225091 -21.97331,19.031961 1.73242,10.123051 l -0.73047,-5.83789 z m 429.9707,4.017581 c 10.37376,4.55636 12.38227,2.02969 0,0 z M 840.37305,103 c 30.45299,13.38181 97.04359,-8.977882 98.21844,35.99357 -4.29562,38.80391 -93.15912,-26.41756 -37.65204,5.6119 1.07871,1.60655 41.12317,11.28137 17.39923,33.92773 -19.93582,31.04046 37.67275,81.97283 -19.17748,76.59705 -39.1899,21.11596 -25.89152,-27.72196 -44.35317,-51.28648 -3.57756,-38.15868 -43.58742,-27.0508 -70.47796,-28.98408 2.23927,-10.61468 26.5228,-2.0679 37.66993,-4.85969 3.77871,-9.15016 -24.95533,3.27209 -38,-1 -3.40596,-24.39647 2.92885,-54.44019 10.75586,-43.91406 -23.50599,-4.464 -2.90268,-17.57024 15.04492,-12.08594 12.26427,-1.11884 28.40728,4.51784 30.57227,-10 z m 127.59179,2.6582 c 4.27315,3.77657 19.758,4.68343 0,0 z M 311.73242,107.75 c -1.35927,3.75743 1.35379,18.87878 0,0 z M 524.5,108.33398 c 2.92321,3.48043 -2.92321,3.48043 0,0 z m 454.51562,0.78711 c 8.34782,4.09928 -12.53747,0.0721 16.78262,6.81121 21.78606,0.86762 23.97396,9.60541 44.70176,9.50133 -20.4508,-5.57127 -40.76205,-11.81713 -61.48438,-16.31254 z m -683.73632,0.25782 c -1.21607,3.29719 2.20457,2.9511 0,0 z m 390.91211,0.6914 c -3.36495,0.83329 7.35281,2.63635 0,0 z M 516.75,110.29492 c 9.97645,-1.50473 1.9514,1.53242 0,0 z m 50.0625,1.02149 c 0.43078,1.92792 4.38344,-1.4313 0,0 z m 160,0 c 0.43078,1.92792 4.38344,-1.4313 0,0 z m -63.0625,0.0215 c 0.99962,1.74864 5.5069,-1.62182 0,0 z m -5.83008,0.40234 c -19.70933,1.13869 12.25784,1.43359 0,0 z m 19.5332,0.002 c -23.47775,1.54937 16.82679,1.04393 0,0 z M 987.5,112.1543 c 11.82234,0.99838 6.56609,4.88239 0,0 z m -375.75,0.12304 c 2.8596,1.42697 14.42999,-1.41616 0,0 z m 81,0 c 2.8596,1.42697 14.42999,-1.41616 0,0 z m 20,0 c 2.8596,1.42697 14.42999,-1.41616 0,0 z m 20,0 c 2.8596,1.42697 14.42999,-1.41616 0,0 z m 20,0 c 2.8596,1.42697 14.42999,-1.41616 0,0 z m -120.5,0.006 c 2.40758,1.47364 12.20414,-1.45706 0,0 z m -104.97266,1.07422 c -3.78645,4.32702 0.76431,6.33291 0,0 z m -230.9707,0.24414 c -0.97671,3.08475 2.04009,3.94827 0,0 z m 146.49609,2.65235 c 27.21786,-0.7707 25.61015,0.95189 0,0 z M 1002,117.14062 c 1.9355,3.91513 7.6031,-0.0424 0,0 z m -704.63281,1.90235 c -0.85483,3.12707 1.66308,6.6098 0,0 z m 711.10941,0.29297 c 10.3737,4.55636 12.3823,2.0297 0,0 z M 667.81836,120.25 c 6.60752,0.81489 77.63005,-0.0921 23.13141,-0.11789 -7.71057,0.002 -15.4214,0.0262 -23.13141,0.11789 z m 123.95898,0.0156 c 3.67786,1.35981 17.62121,-1.33221 0,0 z m -163.08007,0.89063 c -38.99756,1.05808 -3.49649,1.7647 12.21875,0.20508 l -3.41657,-0.26885 z M 806.75,121.27734 c 2.8596,1.42697 14.42999,-1.41616 0,0 z m -59.75,0.0488 c -29.28858,0.008 53.65923,2.71171 8.9125,0.16195 L 747,121.32617 Z m 71.25,0.98438 c 1.48717,1.60747 7.74549,-1.5553 0,0 z m 7.51172,0.98242 c 1.81393,1.544 8.76846,-1.45487 0,0 z M 834,124.23633 c -3.38924,1.68342 17.09182,1.7928 0,0 z m 195.5,0.90429 c 8.6853,4.14975 9.9157,-0.71804 0,0 z m -717.09961,0.3418 c -0.8243,3.49021 1.55044,8.93921 0,0 z M 1043.5,126.11523 c -3.8988,1.01694 10.5539,2.44512 0,0 z m -199.5,0.002 c 8.64503,4.48588 12.77343,1.47974 0,0 z m -427.34766,0.44336 c -20.0371,-2.85537 -39.42975,48.08111 -17.61632,10.39066 4.70354,-5.22396 11.17395,-8.05878 17.61632,-10.39066 z m 387.61719,0.74609 c 1.27992,1.65822 6.59081,-1.47979 0,0 z M 434.74414,127.75 c 0.78088,24.52911 -0.95327,24.4704 0,0 z M 1049.5,128.0625 c 11.1866,5.41061 -23.0601,-2.94833 7.9782,4.68255 2.7634,-2.61383 14.5906,0.9667 -7.9782,-4.68255 z m -751.03906,0.043 c -0.72654,5.15886 1.33288,17.18079 0,0 z M 809.75,128.33789 c 0.99962,1.74864 5.5069,-1.62182 0,0 z m 47.28125,0.9043 c 26.37417,10.40129 19.72301,3.77168 0,0 z m -41.28125,0.0957 c 0.99962,1.74864 5.5069,-1.62182 0,0 z m 288,0.004 c 55.4479,22.45335 112.4826,42.10289 165.9275,68.88954 -24.9691,26.09629 -75.9243,34.82766 -111.5738,52.9828 -30.2343,13.52845 -68.3529,34.94069 -55.0128,-16.73756 -0.01,-35.04099 -0.4716,-70.11032 0.6591,-105.13478 z M 822,130.23633 c -3.38924,1.68342 17.09182,1.7928 0,0 z m -33.17383,2.07617 c 10.73135,5.23761 14.24783,1.81354 0,0 z m 43.98633,0.004 c 0.43078,1.92792 4.38344,-1.4313 0,0 z m 228,1 c 0.4308,1.92792 4.3834,-1.4313 0,0 z M 836.75,133.338 c 0.99962,1.74864 5.5069,-1.62182 0,0 z m 227.75,0.77734 c 11.2139,5.31869 14.2678,2.89551 0,0 z m -222,0.041 c 11.17009,4.93788 14.71006,0.58833 0,0 z m -416.75586,0.54492 c -1.03483,14.45323 0.82544,30.07798 0,0 z m 375.68164,1.54102 c 8.43865,11.33042 11.20936,4.51879 0,0 z m 56.32422,1.0957 c 0.99962,1.74864 5.5069,-1.62182 0,0 z m -546.34961,0.14453 c -0.8243,3.49021 1.55044,8.93921 0,0 z M 862.75,138.33789 c 0.99962,1.74864 5.5069,-1.62182 0,0 z m 186.25,0.78906 c 4.5924,5.32908 9.1923,0.41202 0,0 z m -180.5,0.0293 c 11.17009,4.93788 14.71006,0.58833 0,0 z m -85.75586,1.04102 c 0.77321,25.58955 -0.93504,27.41934 0,0 z M 885,142.21875 c -2.92691,1.79304 15.24374,1.75428 0,0 z m 172.3281,0.11914 c 35.7497,14.68501 44.601,12.84928 0,0 z M 810.40234,143 c 10.17164,20.38148 18.37721,26.24227 0,0 z m -500.03515,3.04297 c -0.85483,3.12707 1.66308,6.6098 0,0 z m -1.00977,6.85742 c -0.94821,3.31169 1.74301,5.58721 0,0 z m -0.72851,5.18359 c -2.48855,2.39426 0.6677,18.64596 0,0 z m 329.48437,4.08399 c -35.01191,-15.71714 -29.10258,59.71481 -21.99218,9.11305 25.19994,-11.03356 88.24121,-8.90732 101.95702,-0.92167 4.70485,-9.75578 -6.37001,51.62487 -2.71752,37.85614 35.24641,-62.89767 -43.50657,-42.78926 -77.24732,-46.04752 z m -240.81055,0.0859 c 26.04738,-0.77898 24.29661,0.96071 0,0 z M 644.81836,163.25 c 19.43013,-0.46531 69.60157,0.33925 21.68164,0.29107 0.51854,-0.21218 -33.63024,0.33105 -21.68164,-0.29107 z M 621,164.07227 c -10.2301,17.59018 -14.05482,11.42675 0,0 z M 346.32812,168 c 14.3919,1.78314 40.26873,-7.91864 32.67188,15.85325 0,16.71559 0,33.43117 0,50.14675 -22.53706,3.70947 -49.48957,-10.53507 -33.94049,12.56848 0.15594,18.97717 0.31189,37.95435 0.46783,56.93152 0.15755,-22.5 0.31511,-45 0.47266,-67.5 19,0 38,0 57,0 -3.52644,12.14744 7.2624,36.94383 -5.87219,40.60197 12.91391,4.24914 12.07721,42.68987 -11.61994,30.67641 -19.32576,-0.16346 -57.71837,-3.03205 -15.85415,0.71706 28.56677,-16.17547 51.93514,27.12831 15.85174,20.10019 -28.95649,-4.55997 -52.19716,2.45357 -48.27066,31.91128 -22.89392,-6.967 -27.50132,10.42735 -34.67463,18.87228 -50.32167,-3.52694 16.39459,14.26931 11.6098,0.72824 -17.09657,-19.41 30.09222,-21.41216 26.52461,-11.20018 8.81337,29.78813 -19.77896,21.5319 -40.29419,19.77874 C 252.29657,385.22287 204.32583,380.4128 156.5,374.5 156.32552,317 156.15104,259.5 155.97656,202 c 47.67448,0 95.34896,0 143.02344,0 0.14806,18.16668 0.29715,36.33334 0.44727,54.5 2.96852,-14.67413 -5.68674,-58.02139 7.58483,-51.85799 -9.45882,23.62277 26.20778,45.82883 3.24489,19.29089 1.01706,-31.06048 -12.20902,-68.8003 36.05113,-55.9329 z m -39.59179,1.70898 c -6.45028,20.59187 -3.80334,25.06541 0,0 z m 128.01367,6.2461 c -15.213,6.56297 -57.83572,-13.85188 -49.75,16.02903 3.20752,11.80877 -8.9291,38.99635 11.25,33.79518 38.50594,8.08633 66.54566,-13.53102 38.5,-49.82421 z M 784,177.91016 c 18.65049,1.48019 39.30955,-2.04972 56.7718,2.39438 12.69647,22.09766 18.82648,52.67387 -21.84641,53.30406 -23.16878,12.7306 -37.43034,-1.46292 -34.92539,-26.13958 0,-9.85296 0,-19.70591 0,-29.55886 z M 391.3418,178 c 32.01186,11.98269 -10.88074,76.92193 -4.43535,22.44969 3.34816,-5.4197 -6.16274,-22.85087 4.43535,-22.44969 z m 13.48828,0 c 32.39434,9.62406 -12.73755,77.64131 0.53125,24.5 3.55511,-7.22396 -11.94375,-24.6582 -0.53125,-24.5 z m 26.57422,0 c 32.36023,10.51797 -12.97243,76.98982 0.38281,24 8.42381,-4.93054 -13.43575,-26.7737 -0.38281,-24 z m -13.64258,0.14062 c 32.45589,6.27755 -10.59205,75.40662 0.56142,28.37673 7.50844,-7.2705 -11.29641,-27.90317 -0.56142,-28.37673 z m 350.05664,16.21876 c -37.23905,-1.17731 15.52582,31.07911 8.66992,1.27347 l -8.66992,-1.27343 z M 757,196 c 49.34331,-3.47681 -5.91037,27.59638 0,0 z m -213.89258,1.0918 C 497.00944,170.98778 493.97538,242.62847 508,239.39656 486.24646,202.41041 522.47077,195.21771 551.26072,200 c 10.25993,10.68485 7.76032,-6.09113 -8.1533,-2.9082 z M 531.5,198.22852 c 35.63459,0.34354 4.41352,0.43207 -14.319,0.71854 -28.21174,-8.4371 -6.84433,69.50847 -15.21976,21.45707 -5.55609,-24.71595 10.56332,-23.87304 29.53876,-22.17561 z M 818.51367,198.5 c -14.13459,8.44692 13.20642,7.39097 0,0 z M 553.81836,199 c 5.19602,2.41895 -0.25419,4.38938 0,0 z m 58.60742,0.73633 c 5.8345,14.47705 22.43122,14.28914 0,0 z m -64.0039,6.1875 c -0.80699,3.94899 1.50523,11.2015 0,0 z M 682,209 c -3.58745,2.55494 3.58745,2.55494 0,0 z m 20.8125,0.31641 c 0.43078,1.92792 4.38344,-1.4313 0,0 z m -400.38867,2.92578 c 2.9261,22.02473 6.01298,18.57758 0,0 z M 638,213.21875 c -10.12888,0.99369 30.79153,2.40095 0,0 z M 656,214 c 20.382,-4.12204 30.16298,2.35694 25,23.77988 -3.16651,12.00167 6.78984,37.1262 -5.28442,40.22012 -23.3178,7.05784 -20.81971,-11.70021 -19.71558,-29.0643 0,-11.64523 0,-23.29047 0,-34.9357 z m -27.75,0.41797 c -0.78677,4.83076 22.27165,-0.44697 0,0 z m -4.03906,0.6582 c -20.18658,0.71273 -13.06346,39.51669 -8.55274,6.24805 -9.70765,5.90948 11.70879,-5.98682 9.39767,-5.87517 z m 88.7832,0.31641 c -10.77583,-6.8507 30.13574,35.82662 9.27148,3.95508 l -4.49672,-3.13045 z m 3.49219,1.78711 c 10.69479,5.02132 11.87022,18.9432 2.80273,2.14258 z m -309.20703,2.19922 c -1.21607,3.29719 2.20457,2.9511 0,0 z M 857.64258,222 c 21.95292,22.26421 11.12741,55.16767 -8.04688,35.5 -1.87206,24.66374 -48.85029,-2.31133 -33.5957,13.37305 -40.41894,6.63731 -5.26903,-6.92021 -13.50586,-8.69532 -9.3805,-23.52072 -24.20496,41.62828 -18.43425,-6.04152 -2.52268,-18.90245 8.92184,-6.01717 30.82449,-18.47269 C 829.12329,232.40546 843.337,227.07514 857.64258,222 Z m 19.24023,0.14844 c -23.57207,-5.65136 65.03778,18.34117 18.54756,29.28179 2.97075,1.90567 -31.40123,8.02274 -2.33806,3.39028 39.31915,-3.17365 1.9341,-33.76759 -16.2095,-32.67207 z m -328.23633,2.32031 c -7.30643,8.16811 1.833,9.51934 0,0 z M 784.43359,225 c 14.56393,10.50945 -5.6254,12.71447 0,0 z m 77.81836,1.41406 c 8.55369,18.70856 5.77463,21.75169 0,0 z m -555.84179,2.66211 c -1.08355,4.35574 3.77691,16.42691 0,0 z m 220.85351,1.20703 c 2.2986,1.47737 10.97286,-1.41998 0,0 z m 5.20508,2.98438 c -32.9033,-1.27826 -12.56254,85.85981 15.24459,45.07133 -3.54678,-13.86391 11.47541,-51.41498 -15.24459,-45.07133 z M 533.8125,235 c 29.13178,3.64465 -2.02743,29.56397 -12.18263,19.5477 32.44376,17.10622 24.10695,-41.96934 25.37013,4.77066 16.10225,34.45251 -38.39814,30.04538 -27.00586,5.68164 0.94143,3.16719 -4.78887,-39.93042 13.81836,-30 z M 788,236 c 3.58745,2.55494 -3.58745,2.55494 0,0 z m -404.66602,2 c -41.26294,0.11662 9.80671,6.15673 15.02713,0.27045 l -5.569,-0.2159 z m -74.96679,1.04297 c -0.85483,3.12707 1.66308,6.6098 0,0 z m 75.91992,0.2168 c 15.4254,-0.86825 13.73894,1.08142 0,0 z m 404.46289,0.0781 c 5.5069,-1.62182 0.99962,1.74864 0,0 z m -276.49023,0.0176 c 2.09663,5.51727 4.89084,0.40223 0,0 z M 796.125,240 c -0.65035,7.5028 -13.64367,-0.0482 0,0 z m -185.40234,2.75 c -1.42697,2.8596 1.41616,14.42999 0,0 z m -91.30469,0.0312 c 1.45769,10.04685 -0.79274,4.22268 0,0 z m 348.97265,0.49414 c 5.6873,10.99063 2.87528,14.08337 0,0 z M 365.06836,243.625 c 1.43391,13.74108 16.95702,30.36525 2.88672,8.4707 z m 482.23828,0.97656 c -0.97671,3.08475 2.04009,3.94827 0,0 z m -537.94922,1.29883 c -0.94821,3.31169 1.74301,5.58721 0,0 z m 95.38867,1.34961 c 0.77798,25.85217 -0.95143,25.79625 0,0 z m 110.53321,0.12891 c -1.21607,3.29719 2.20457,2.9511 0,0 z m 389.1875,1.73437 c -2.88667,3.91947 -6.42967,0.25783 0,0 z m -56.16016,0.48828 c -0.97671,3.08475 2.04009,3.94827 0,0 z m 80.86524,1.2168 c 34.4615,23.56888 -43.06479,59.06707 -46.09313,29.72237 -14.89064,-19.31444 13.79065,-27.35483 39.59898,-28.19503 -11.51626,15.89549 -53.1258,33.31862 -14.17773,14.5625 7.5442,-4.42852 12.23563,-13.19807 20.67188,-16.08984 z m -618.76172,0.4375 c -0.23397,17.01826 3.2491,14.65581 0,0 z m 785.33984,2.08203 c 0.9996,1.74864 5.5069,-1.62182 0,0 z m -581.44336,1.26367 c -0.97671,3.08475 2.04009,3.94827 0,0 z m 578.81636,0.78906 c -25.3799,4.82877 -10.9326,3.01019 -25.5507,6.72461 3.089,-0.0652 40.4662,-7.30087 25.5507,-6.72461 z m -293.86909,1.20118 c 4.30696,21.65433 -26.92323,13.34254 0,0 z m -187.94727,0.01 c -0.97671,3.08475 2.04009,3.94827 0,0 z m -77.48633,0.41016 c -28.21098,-0.14082 32.36103,-2.97011 11.42969,25.33594 0.41405,-9.84821 5.75616,-30.14894 -11.42969,-25.33594 z m 550.99219,0.30469 c 4.3834,-1.43122 0.4307,1.92796 0,0 z m -22.0781,0.0859 c -31.0071,11.83278 -65.25123,4.23122 -97.79708,6.91624 -28.99999,0.20714 -16.40198,0.29087 4.98449,0.34851 30.81059,-2.35293 64.13489,6.76731 92.81259,-7.26475 z M 612.38281,261 c -1.71441,5.28771 3.07935,5.27675 0,0 z m 457.42969,0.31641 c 4.3834,-1.43122 0.4307,1.92796 0,0 z m -199.06641,1.05273 c 11.9241,13.7412 24.8488,59.45807 -10.41713,39.94746 -3.09087,14.92262 -46.94525,4.90463 -30.35846,39.48275 4.88808,31.41497 -74.59623,15.57058 -36.4705,3.20065 16.99366,1.37232 40.36541,-0.15013 31.98563,-14.86 10.28956,17.14208 -24.31039,18.13862 -14.75907,8.04359 17.8879,3.80543 8.63311,-7.42524 -5.66592,-7.59917 6.63601,1.00099 -27.46139,3.86951 -19.56064,-7.58442 12.38844,-4.4244 31.18681,-19.73288 17.06445,1.63867 8.70249,2.85394 13.8745,-26.181 -15.92968,-13.5664 -5.50141,-3.29784 16.24717,-3.63236 -2.63477,-7.71448 0.46621,-21.63122 -3.39137,-29.33725 12.32617,-9.09607 31.02906,4.7393 21.23941,-38.07018 57.22195,-28.63757 5.74781,-1.01171 11.38996,-2.57514 17.19797,-3.25501 z m 194.02931,0.0742 c -25.578,6.47325 -30.8436,9.18829 -49.7754,13.55273 -45.00765,13.36012 24.2094,-2.90036 38.7383,-9.59179 -5.735,2.2335 13.1812,-2.57257 11.0371,-3.96094 z M 1067.0586,263 c -3.4339,2.33395 1.9068,2.87986 0,0 z m -551.7793,1.37891 c -1.21607,3.29719 2.20457,2.9511 0,0 z m -138.94336,1.95312 c 11.21206,9.76262 25.71521,11.95499 5.34375,2.80274 z m -77.88672,0.33203 c -0.74948,5.3434 1.37883,14.37527 0,0 z m 553.94531,1.32422 c -0.65367,7.50556 2.60008,5.52535 0,0 z M 796.16406,269 c -7.65196,13.24917 -10.35689,4.43899 0,0 z m -72.71289,0.81641 c -3.71849,9.56312 -14.76678,5.60316 0,0 z M 1037.5,270.14062 c 5.9719,0.87152 -14.4803,2.83566 0,0 z m -725.09961,0.3418 c -0.8243,3.49021 1.55044,8.93921 0,0 z m 562.45508,0.66797 c -20.95104,-2.01492 -69.88256,38.82336 -65.0588,31.97559 26.36922,-12.69548 20.42435,-3.25455 33.25024,-16.21192 0.86261,17.44715 9.72954,15.64324 1.66316,0.18093 20.35323,-15.68536 28.1051,5.43667 22.0204,-10.60085 6.45748,2.3032 4.9008,-3.62131 8.125,-5.34375 z m -86.16992,1.08399 c 0.23751,4.62113 -4.23818,4.07728 0,0 z m 28.91992,0.38476 c 19.71426,26.6304 -39.87402,20.20814 -27.40822,14.50974 -11.36503,-13.1868 5.80688,-4.58652 17.52634,-9.73319 -23.5265,24.94333 -2.54,-0.39871 9.88188,-4.77655 z M 1022.5,273.16992 c -11.6498,2.25691 3.7208,1.12801 0,0 z m -159.25,1.4375 c 0.1057,3.2105 -7.89711,0.0266 0,0 z m -154,1.70313 c 7.74549,-1.5553 1.48717,1.60747 0,0 z m 303.75,0.79883 c -9.4179,4.4265 -12.9306,1.70612 0,0 z m -309.73047,0.19726 c 6.59083,-1.47978 1.27989,1.65819 0,0 z m -405.90234,1.73633 c -0.85483,3.12707 1.66308,6.6098 0,0 z m 364.92383,0.21484 c 19.22804,-0.8971 15.75105,1.09457 0,0 z m 21.97265,0.0254 c 10.97289,-1.41996 2.29853,1.47741 0,0 z m -34.50195,0.01 c 8.76851,-1.45485 1.81383,1.54392 0,0 z M 997,280.14062 c -7.60308,-0.0424 -1.93554,3.91513 0,0 z m -476.91992,1.99024 c 6.94712,1.84836 2.62156,5.17561 0,0 z m 468.73242,0.18555 c 0.43078,1.92792 4.38344,-1.4313 0,0 z m -3.08594,0.90039 c -29.76815,10.40986 1.32572,3.48768 -3.98331,3.42662 15.84213,-3.49244 3.34197,-0.0818 3.98331,-3.42662 z m 7.08594,0.0996 c 0.43078,1.92792 4.38344,-1.4313 0,0 z M 311.73242,283.75 c -1.35927,3.75743 1.35379,18.87878 0,0 z m 217.53125,1.5332 c 10.97289,-1.41996 2.29853,1.47741 0,0 z m 335.22852,0.0527 c 7.97938,15.8857 -18.02879,0.93743 -6.21803,13.03696 9.8268,-3.25891 26.901,-2.68693 12.50121,-9.4847 l -3.30271,-2.33342 -2.98047,-1.21875 z m -69.9375,0.0254 c -7.31077,2.38916 0.61775,7.367 0,0 z m -497.91602,0.0527 c -4.24503,8.50155 1.7095,8.49477 0,0 z m 543.17969,1.125 c -5.95658,8.984 -10.67438,3.53952 0,0 z M 960.5,291.19922 c 1.41637,2.19575 -13.15908,1.53538 0,0 z m -666.23633,2.99609 c -4.30264,14.74218 -15.51365,49.7889 -3.61575,15.82103 -5.22007,-3.53317 7.49503,-11.51446 3.61575,-15.82103 z m 603.55274,0.28711 c -4.36509,4.81857 -17.58559,3.60859 0,0 z m -400.58985,0.57813 c -7.3637,1.35676 2.34265,3.34253 0,0 z m 13.57032,1.19531 c 20.33868,0.99579 22.06197,-0.80635 0,0 z m -44.04688,0.002 c 19.15996,1.00326 19.24329,-0.82016 0,0 z m 73.51953,0.0488 c 1.27992,1.65822 6.59081,-1.47979 0,0 z m -15.13281,1.54688 c -59.49507,8.71994 50.01324,-16.72521 22.79412,28.35188 -11.31792,28.57592 -60.09859,9.98889 -45.38006,-24.70542 -14.22469,34.80053 27.65386,52.94254 47.45703,28.80078 2.05897,-22.82244 3.43728,-37.47947 -24.87109,-32.44724 z m 478.77148,1.49023 c -17.69887,-0.63826 -53.38216,21.57161 -14.78711,10.2168 0.21557,-1.42097 24.91601,-4.59775 14.78711,-10.2168 z m -477.4082,2 c -9.97913,2.66041 6.2643,7.94566 0,0 z m 473.48828,0.16406 c 1.82842,2.52866 -3.22164,3.98072 0,0 z m -474.14258,0.75 c 4.43685,3.53587 -5.41904,3.41828 0,0 z M 310.73438,304.25 c -1.32504,4.20491 1.32098,21.1025 0,0 z m 684.7539,0.22461 c -0.13187,3.32017 -5.65138,0.23715 0,0 z M 988,305.08594 c 8.24832,1.93723 -1.41757,1.90067 0,0 z m -100.55469,0.0742 c 23.83494,27.17396 6.46818,41.91606 -26.478,41.43357 -39.1139,28.02251 -37.4896,-36.68516 -11.71731,-32.90818 13.5094,-2.37945 25.8014,-2.30608 38.19531,-8.52539 z m -90.17578,0.14648 c 1.27992,1.65822 6.59081,-1.47979 0,0 z m 186.54297,1.00977 c 4.38347,-1.43122 0.43069,1.92796 0,0 z M 410.5,308 c 5.26898,2.47933 -5.26898,2.47933 0,0 z m 8.5,0 c 17.49434,2.25299 -17.49434,2.25299 0,0 z m 396.63867,1.16797 c -9.35948,-0.20215 24.4136,8.29845 0,0 z m -362.30273,0.25781 c -4.70512,7.93845 1.64078,38.28797 -3.83281,16.9148 -4.14435,-3.47256 -3.89226,-8.10396 3.83281,-16.9148 z m 429.76172,0.0742 c 4.70074,16.34614 -11.63402,33.57666 2.52225,15.09252 -0.76189,-5.04399 -1.66656,-10.06418 -2.52225,-15.09252 z M 972,310 c 3.58745,2.55494 -3.58745,2.55494 0,0 z m -176.5,0.0625 c 21.60401,13.77166 -32.41636,8.71663 0,0 z M 410.5,311 c 5.38118,3.83242 -5.38118,3.83242 0,0 z m 8.5,0 c 17.75634,4.3187 -17.1709,2.5306 0,0 z m 10.5,0 c 12.1639,3.82497 -11.79078,2.90684 0,0 z m 10,0 c 19.50347,4.34407 -18.88147,2.50332 0,0 z m 8.5,0 c 7.06637,3.756 -7.06637,3.756 0,0 z m -40.7207,3.37891 c 2.20446,2.95146 -1.21612,3.29684 0,0 z M 410.5,315 c 5.45469,5.18233 -5.45469,5.18233 0,0 z m 8.5,0 c 17.64552,5.99196 -17.27482,5.41346 0,0 z m 10.5,0 c 12.66848,5.00802 -12.20211,4.09301 0,0 z m 10,0 c 18.68278,3.12063 -19.64359,5.5171 0,0 z m 423.7793,0.37891 c -1.21607,3.29719 2.20457,2.9511 0,0 z m -37.62305,1.11914 c -5.76445,9.65547 1.57923,9.08349 0,0 z m -12.87891,2.76757 c 3.67786,1.35981 17.62121,-1.33221 0,0 z m -405.37695,0.2168 c 1.55044,8.93921 -0.8243,3.49021 0,0 z M 445.5,320.98828 c -7.99297,10.6669 -19.07809,3.17814 0,0 z M 410.5,321 c 6.30029,6.86497 -6.07515,8.34621 0,0 z m 4.5,0 c 21.67324,8.87727 -5.75433,7.46994 0,0 z m 8,0 c 3.65313,3.90318 -3.65313,3.90318 0,0 z m 6.5,0 c 11.80538,5.03519 -11.85274,7.74992 0,0 z m 350.64258,0 c 13.38679,40.35515 -12.23119,52.29213 -49.67578,50 -15.56402,-15.71689 23.72714,-35.72454 18.73207,-33.1857 9.45978,-4.34724 19.49287,-10.87495 30.94371,-16.8143 z m 162.24023,0.3125 c -27.30708,6.85117 -34.82776,12.78138 0,0 z m -101.05078,0.0234 c 0.23145,8.96011 3.38875,5.308 0,0 z M 700.75,323.27734 c 2.8596,1.42697 14.42999,-1.41616 0,0 z m 163.75781,0.24414 c -0.0776,4.98482 3.73938,1.84659 0,0 z m -169.69531,0.79493 c 0.43078,1.92792 4.38344,-1.4313 0,0 z m -385.36328,0.34765 c -0.74948,5.3434 1.37883,14.37527 0,0 z m 513.53516,2.84571 c -1.92893,4.03112 3.47242,2.26883 0,0 z m -376.63477,0.63867 c 9.74047,1.37812 -2.80126,7.81178 0,0 z M 416,328.27539 c 16.41198,0.0811 -3.44495,8.32045 0,0 z m 427.2793,0.10352 c -1.21607,3.29719 2.20457,2.9511 0,0 z m -559.58594,0.0644 c 2.53404,8.26351 26.8386,26.38509 18.54883,34.15435 18.2201,-6.06756 -20.52429,-28.11064 -18.54883,-34.15435 z M 431.75,328.94727 c 3.93614,8.8069 -13.052,-2.1543 0,0 z M 410.5,329 c 5.38118,3.83242 -5.38118,3.83242 0,0 z m 26,0 c 8.7413,3.68388 -8.7413,3.68388 0,0 z m 6,0 c 8.7413,3.68388 -8.7413,3.68388 0,0 z m 342.39062,0 c 3.68406,19.85446 -3.38496,19.84963 0,0 z M 916,329.1543 c -13.07605,2.69306 -9.25166,5.45848 0,0 z m -457.69336,1.44726 c -0.97671,3.08475 2.04009,3.94827 0,0 z M 404,330.9707 c 0,20.3431 0,40.6862 0,61.0293 -18.61456,-3.5741 -52.74845,7.74799 -60.98241,-6.35257 0.1597,-18.04915 0.32087,-36.09829 0.48241,-54.14743 20.16666,-0.17746 40.33332,-0.35389 60.5,-0.5293 z m 3.41797,0.81055 c 1.45769,10.04685 -0.79274,4.22268 0,0 z m 436.8418,0.93945 c 1.51877,10.46606 4.14606,6.10386 0,0 z M 868.5,333.19922 c -16.78145,1.73653 3.14516,1.68716 0,0 z M 410.5,334 c 5.26898,2.47933 -5.26898,2.47933 0,0 z m 8.5,0 c 17.49434,2.25299 -17.49434,2.25299 0,0 z m 10.5,0 c 12.15766,2.29951 -12.15766,2.29951 0,0 z m 10,0 c 19.28148,2.24409 -19.28148,2.24409 0,0 z m 8.5,0 c 6.95128,2.41393 -6.95128,2.41393 0,0 z m 339,0 c 30.17439,-6.99674 3.3042,25.41963 0,2.35779 z m 19,0 c 3.71713,9.23827 -3.71713,9.23827 0,0 z m 5.58398,0 c 11.18925,3.02633 -11.91372,2.89779 0,0 z m -8.18945,1.33984 c 1.5463,7.85818 -0.83819,3.71283 0,0 z m 56.67383,0.0684 c -6.03844,0.092 -12.25144,3.10503 0,0 z m -66.01563,0.19336 c -15.98134,3.73031 12.59661,7.14604 0,0 z M 365.59375,336.5 c 5.23223,27.0551 -5.64323,12.7108 -10.1543,9.61133 -5.36696,-0.48817 -6.04962,24.20711 -4.91712,19.74946 -2.19111,-23.89935 14.79161,0.0598 14.61479,-6.57815 -2.60703,21.75093 3.47298,-17.63733 9.46256,-1.39867 -1.00705,-8.09947 37.56599,-0.16246 15.64641,-4.88397 0.67804,-27.61639 -9.38186,18.17339 -18.70991,-7.71272 1.68743,-13.35328 -4.95434,24.17525 -5.80434,-3.17869 -0.046,-1.86953 -0.0921,-3.73906 -0.13809,-5.60859 z m -206.96094,0.0449 c 10.97926,5.8454 9.60469,2.90708 0,0 z M 848.75,337.33789 c 0.99962,1.74864 5.5069,-1.62182 0,0 z M 410.5,338 c 5.26898,2.47933 -5.26898,2.47933 0,0 z m 8.5,0 c 17.49434,2.25299 -17.49434,2.25299 0,0 z m 10.5,0 c 12.15766,2.29951 -12.15766,2.29951 0,0 z m 10,0 c 19.28148,2.24409 -19.28148,2.24409 0,0 z m 8.39258,0 c 9.08394,3.94721 -5.95629,2.44507 0,0 z m 3.90625,0 c 8.48092,22.96227 -25.46526,8.45875 -38.10716,12.5 -31.55657,-16.73225 35.39393,2.8968 38.10716,-12.5 z m -143.39844,0.48242 c -0.8243,3.49021 1.55044,8.93921 0,0 z M 170,340.21875 c -2.92691,1.79304 15.24374,1.75428 0,0 z m 180.44922,1.44531 c -0.74948,5.3434 1.37883,14.37527 0,0 z m 32,0 c -0.74948,5.3434 1.37883,14.37527 0,0 z M 179.5,342.21484 c 9.55955,4.81894 12.98093,0.58687 0,0 z m 240.30273,0.0391 c 27.21786,-0.7707 25.61015,0.95189 0,0 z M 194,345.21875 c -2.92691,1.79304 15.24374,1.75428 0,0 z m 8.75,2.11914 c 0.99962,1.74864 5.5069,-1.62182 0,0 z m 5.51953,0.96875 c 1.27992,1.65822 6.59081,-1.47979 0,0 z m 99.14844,0.47461 c -0.79269,4.22285 1.45772,10.04672 0,0 z M 213.75,349.33789 c 0.99962,1.74864 5.5069,-1.62182 0,0 z m 5,1 c 0.99962,1.74864 5.5069,-1.62182 0,0 z m 6.25,0.89844 c -3.38924,1.68342 17.09182,1.7928 0,0 z m 199.78906,1.02148 c 16.75129,-0.85009 15.05997,1.05747 0,0 z M 235.25,353.31055 c 1.48717,1.60747 7.74549,-1.5553 0,0 z M 406,354 c 16.33333,0 32.66667,0 49,0 -4.01276,11.58283 8.74718,40.1332 -7.9261,38.90846 -20.78055,-0.1549 -50.17639,7.06535 -41.0739,-22.59364 0,-5.43827 0,-10.87655 0,-16.31482 z m -163.45898,0.18164 c 3.93303,3.68982 14.52875,0.22208 0,0 z M 465.25,354.83008 c 28.27381,-4.54106 52.74847,-4.18904 43.75,28.66649 -11.11993,20.27315 -69.48291,14.08914 -52,-23.37363 -1.84099,-8.25622 3.17573,-4.25328 8.25,-5.29286 z m -211,1.48047 c 1.48717,1.60747 7.74549,-1.5553 0,0 z m 7.01953,0.99609 c 1.27992,1.65822 6.59081,-1.47979 0,0 z m 452.98047,0.004 c 1.48717,1.60747 7.74549,-1.5553 0,0 z m -331.80078,0.35351 c -0.74948,5.3434 1.37883,14.37527 0,0 z m -114.6875,0.62891 c 1.81393,1.544 8.76846,-1.45487 0,0 z m 438,0 c 1.81393,1.544 8.76846,-1.45487 0,0 z m -314.4707,0.38281 c 0.57025,11.08737 4.17925,8.84661 0,0 z m 306.4707,0.61719 c 1.81393,1.544 8.76846,-1.45487 0,0 z M 275.25,359.31055 c 1.48717,1.60747 7.74549,-1.5553 0,0 z m 9.25,0.88867 c -1.71701,2.19831 20.46516,1.4229 0,0 z m 404.25,0.0957 c 1.9514,1.53242 9.97645,-1.50473 0,0 z m -365.9668,0.9668 c 22.05632,-1.2862 4.58622,1.30045 0,0 z m 356.9668,0.0332 c 1.9514,1.53242 9.97645,-1.50473 0,0 z m -319.33789,0.041 c 0.13685,10.18245 3.42065,6.57777 0,0 z m 15,0 c 0.13685,10.18245 3.42065,6.57777 0,0 z m 295.33789,0.959 c 1.9514,1.53242 9.97645,-1.50473 0,0 z m -7.98828,0.99805 c 1.81393,1.544 8.76846,-1.45487 0,0 z M 315.75,364.29492 c 1.9514,1.53242 9.97645,-1.50473 0,0 z m 338,0 c 1.9514,1.53242 9.97645,-1.50473 0,0 z m -328.48633,0.98828 c 2.2986,1.47737 10.97286,-1.41998 0,0 z m 320.49805,0.01 c 1.81393,1.544 8.76846,-1.45487 0,0 z m -8,1 c 1.81393,1.544 8.76846,-1.45487 0,0 z m -9.01172,1.00195 c 1.9514,1.53242 9.97645,-1.50473 0,0 z m -9,1 c 1.9514,1.53242 9.97645,-1.50473 0,0 z m -7.98828,0.99805 c 1.81393,1.544 8.76846,-1.45487 0,0 z m 71.29101,0.80078 c -17.07237,-2.3863 -51.5977,10.14786 -15.05273,5.94727 -0.28654,-0.48697 24.07414,-0.36876 15.05273,-5.94727 z m -80.29101,0.19922 c 1.81393,1.544 8.76846,-1.45487 0,0 z M 591.75,371.29492 c 1.9514,1.53242 9.97645,-1.50473 0,0 z m -10.98242,0.98047 c 2.76703,1.42595 13.18503,-1.38686 0,0 z m 91.98242,0.0625 c 5.5069,-1.62182 0.99962,1.74864 0,0 z m -103,0.95703 c 1.9514,1.53242 9.97645,-1.50473 0,0 z m 63.04297,0.89844 c -21.60156,-2.32248 -46.78797,10.13664 -9.55664,5.45508 1.02287,0.87098 25.44981,-3.37592 9.55664,-5.45508 z m -68.98047,0.12305 c 0.43078,1.92792 4.38344,-1.4313 0,0 z M 634,375.09961 c 4.30502,2.31498 -4.23636,1.47586 0,0 z m -350.41211,4.50781 c 6.49928,0.0479 -0.17413,2.98865 0,0 z m 24.66211,1.4082 c 5.80621,2.97461 -3.81545,0.65477 0,0 z m 4.94141,0.0547 c 7.35281,2.63635 -3.36495,0.83329 0,0 z M 302.75,382.33789 c 5.5069,-1.62182 0.99962,1.74864 0,0 z"
       inkscape:label="path3362" />
  </g>
</svg>
